<svg width="123" height="70" viewBox="0 0 123 70" fill="none" xmlns="http://www.w3.org/2000/svg">
<path d="M7.17462 28.9522C17.3072 29.9021 27.6355 31.4386 37.6686 33.1657C47.97 34.9389 58.3749 35.3537 68.6625 37.1649C71.3266 37.6339 78.5765 37.2206 80.4459 39.5573C80.9305 40.163 82.3088 39.8786 83.0168 39.8786" stroke="#5D1718" stroke-width="3" stroke-linecap="round"/>
<path d="M83.0168 39.8786C87.4136 34.9322 90.3093 29.071 95.9071 25.3815C99.3289 23.1262 101.717 20.0479 104.87 17.5259C107.382 15.5163 111.729 9.67029 115.153 9.67029" stroke="#5D1718" stroke-width="3" stroke-linecap="round"/>
<path d="M9.81665 26.4262C12.4392 25.0525 14.5008 22.8701 17.0666 21.4116C18.4812 20.6076 19.898 19.7003 21.2505 18.7986C22.772 17.7843 24.2744 16.8638 25.7968 15.8231C26.852 15.1018 27.8969 14.3675 28.9536 13.6481C30.1499 12.8336 30.7879 11.6844 31.8234 10.7179C32.9189 9.69539 33.9612 8.75489 35.2671 8.02938C36.8414 7.15479 38.7277 6.47938 40.0551 5.28043C40.6361 4.75567 41.3638 4.50556 41.8676 3.87574C42.1883 3.47486 42.6369 2.74677 43.1213 2.53148C43.6795 2.28337 44.0557 2.33142 44.6166 1.95752" stroke="#431B1B" stroke-width="3" stroke-linecap="round"/>
<path d="M46.2478 1.68561C51.0976 1.87704 55.8885 2.70499 60.7176 3.1356C64.5154 3.47427 68.3396 3.37856 72.1363 3.70956C75.8219 4.03087 79.5026 4.25201 83.1926 4.54029C85.0786 4.68764 86.9957 4.73361 88.8566 5.09914C90.8574 5.49215 92.7846 5.58708 94.7925 5.88456C97.2108 6.24283 99.7886 6.85122 102.239 6.85122C103.542 6.85122 104.883 6.76247 106.181 6.86633C107.364 6.96095 108.34 7.39497 109.564 7.39497C110.268 7.39497 114.353 7.12458 114.76 7.93872" stroke="#431B1B" stroke-width="3" stroke-linecap="round"/>
<path d="M7.91351 28.6012C7.91351 27.767 8.2304 27.5137 9.00101 27.5137" stroke="#431B1B" stroke-width="3" stroke-linecap="round"/>
<path d="M14.9823 37.0293C13.9145 35.3208 12.3415 33.8967 10.8135 32.6038C10.7107 32.5168 8.82421 31.3977 9.63543 31.8033C12.3914 33.1813 14.8085 34.7936 17.7917 35.7606C18.0447 35.8426 20.9936 36.2145 20.9031 36.7574C20.5806 38.6923 9.6764 35.5614 8.53282 35.3981C8.37589 35.3756 7.03148 35.1811 7.41512 34.7335C7.77134 34.3179 9.81615 34.7643 10.0432 34.7939C13.8034 35.2844 17.5274 36.022 21.2807 36.5611C24.4043 37.0097 27.5066 37.3012 30.6604 37.3012C31.6204 37.3012 28.734 37.2373 27.7906 37.0595C25.6726 36.6603 23.653 35.8928 21.5677 35.3679C21.3088 35.3027 19.2669 35.2837 19.0906 34.9752C18.3421 33.6653 26.4003 34.667 26.4463 34.6731C31.3691 35.3263 37.3701 35.8082 41.9281 37.996C42.746 38.3886 42.2178 38.5406 41.5958 38.6001C40.0617 38.747 38.4812 38.6673 36.9437 38.6606C32.3487 38.6403 28.2395 38.0007 23.8031 36.8783C23.2268 36.7325 22.3287 36.7691 22.051 36.2137" stroke="#F9F8E2" stroke-width="3" stroke-linecap="round"/>
<path d="M60.6956 15.4471C60.6956 16.8189 60.6956 18.1907 60.6956 19.5625C60.6956 19.8866 60.6956 20.8589 60.6956 20.5348C60.6956 18.1172 60.4857 15.7311 60.0173 13.3555C59.5239 10.8534 58.6519 8.42744 58.3214 5.8936C58.261 5.43055 58.5165 4.21126 58.1518 4.50297C57.8588 4.73738 58.1882 6.01415 58.231 6.19886C58.8605 8.91579 60.6159 11.4291 62.1428 13.706C63.5828 15.8533 65.2464 17.8467 66.7104 19.9695C66.8014 20.1014 66.8676 20.2458 66.9591 20.3765C67.6059 21.3005 64.8812 19.4884 63.8952 18.9407C58.9611 16.1995 53.8511 13.2994 49.2653 9.99766C48.9715 9.7861 48.6498 9.70206 49.3219 9.80546C52.8105 10.3422 56.2792 11.0332 59.746 11.6936C62.1951 12.1601 64.7955 12.4472 67.2079 13.0503C67.5026 13.124 66.5975 13.0136 66.3034 12.9372C63.4157 12.1875 60.6503 11.1415 57.8692 10.0768C56.2747 9.46643 54.6633 8.92962 53.0189 8.47136C52.8524 8.42494 52.3604 8.27686 52.5328 8.29046C53.1266 8.33734 54.8618 8.63226 55.1218 8.67487C57.4959 9.06384 59.8736 9.55645 62.2785 9.71501C62.9385 9.75853 63.9367 9.90676 64.6075 9.74893C65.3735 9.56869 63.1458 9.15923 62.3915 8.9349C60.1778 8.2765 57.941 7.69532 55.721 7.05812C54.0636 6.58237 52.4112 6.04275 50.7238 5.67879C50.3825 5.60517 49.5546 5.63814 49.2993 5.35092C48.0257 3.91814 53.9474 5.11464 54.093 5.13611C58.8382 5.83586 63.4473 6.9168 68.0219 8.32438" stroke="#5D1718" stroke-width="3" stroke-linecap="round"/>
<path d="M81.8604 38.0364C81.6375 36.6991 80.8197 35.5094 80.0967 34.3959C78.6608 32.1846 77.0782 30.0547 75.3482 28.0646C74.3638 26.9323 73.2707 25.8892 72.386 24.6728C71.4943 23.4467 70.7834 22.1596 69.65 21.1227C68.2502 19.8421 66.6404 18.7967 65.2633 17.4822C64.9656 17.1981 64.7812 17.0752 64.3588 17.0752" stroke="#5D1718" stroke-width="3" stroke-linecap="round"/>
<path d="M79.0113 36.6119C77.0667 34.9679 75.3074 33.1121 73.3357 31.5016C70.4702 29.161 67.308 27.9067 64.0648 26.2556C59.3501 23.8554 55.2853 20.4407 50.769 17.7309C45.4071 14.5138 61.2088 24.8075 67.0383 27.0696C70.2275 28.3072 73.6934 29.1285 76.9762 30.0544C78.8575 30.585 74.2079 25.9568 74.0593 25.8034C72.6426 24.3414 71.1593 22.9332 69.6952 21.5184C68.3685 20.2365 66.784 19.2682 65.4668 18.0023C65.0472 17.5991 64.769 17.0784 64.3588 16.6682C63.6529 15.9623 64.3362 17.303 64.4379 17.437C67.7162 21.7534 71.9785 25.2646 74.9864 29.817C75.515 30.6171 76.2661 31.3474 76.524 32.293C76.6195 32.6432 75.9758 31.8167 75.7099 31.5694C72.7045 28.7741 69.229 26.5414 66.2243 23.7344C64.7909 22.3953 63.4656 20.6416 61.9619 19.4721C58.8962 17.0876 68.178 24.1359 71.4024 26.3008C71.9796 26.6884 72.5569 27.315 73.1887 27.6123C73.7985 27.8993 73.6578 27.4887 73.2 27.1149C69.1294 23.79 64.0627 21.5716 59.2937 19.4381C57.6953 18.723 55.3336 17.4822 53.5051 17.4822C52.3765 17.4822 55.7352 17.8486 56.829 18.1266C58.0101 18.4269 59.1769 18.8197 60.2886 19.3138" stroke="#5D1718" stroke-width="3" stroke-linecap="round"/>
<path d="M63.7483 24.198C59.846 21.8018 56.1448 19.147 52.1936 16.8265C51.5321 16.438 50.1093 15.8482 49.7063 15.2437" stroke="#5D1718" stroke-width="3" stroke-linecap="round"/>
<path d="M43.6011 7.30687C41.3175 9.53973 39.7265 12.6134 38.1064 15.3341C36.5441 17.9578 34.75 20.5151 33.2901 23.1917C33.0834 23.5707 33.7756 22.4778 34.0137 22.1177C35.1621 20.3802 36.4755 18.89 37.9368 17.4031C39.9145 15.3907 41.9292 13.4433 43.8046 11.3318C45.0656 9.91207 46.2345 8.42027 47.6938 7.19381C48.0707 6.8771 49.2635 5.71039 49.2088 6.92247C48.9886 11.8053 45.5505 16.4116 43.4315 20.6253C42.8546 21.7724 42.3641 22.991 41.7243 24.1075C41.5958 24.3318 41.1556 24.9667 41.3286 24.7745C42.2598 23.7399 43.0089 22.5829 44.0081 21.5976C46.3789 19.2596 49.1178 17.8964 52.2388 16.8491C53.3485 16.4767 54.9755 15.527 56.1733 15.4471C56.8437 15.4025 56.6341 16.7167 56.6029 17.0752C56.4953 18.3123 55.7032 19.3099 55.2236 20.4218C54.7405 21.5417 54.3655 22.6715 53.7764 23.7457C53.3971 24.4375 53.2056 25.0642 53.5955 25.826C53.741 26.1101 55.76 27.9013 55.4723 28.1889C55.1684 28.4929 53.4918 27.7231 53.3694 27.6802C50.379 26.6305 47.3892 25.6782 44.3021 24.9441C41.7594 24.3395 39.0625 23.5874 36.4218 23.5874C36.0437 23.5874 35.2529 23.4422 36.3766 23.7231C41.8329 25.0872 47.1875 26.7201 52.3745 28.9012C53.5743 29.4057 54.7423 30.023 55.9698 30.4614C56.8717 30.7836 55.7738 30.8907 55.3367 30.9024C50.143 31.0409 45.0874 29.6362 39.938 29.4891C39.82 29.4857 39.5251 29.4795 39.5988 29.3874C40.0506 28.8226 41.0426 29.5284 41.7469 29.6926C46.1907 30.7286 50.4846 32.331 55.0427 32.8131C59.2433 33.2574 63.4556 33.4601 67.694 33.7741C68.8705 33.8612 69.9427 34.1698 71.1424 34.1698C71.7941 34.1698 72.4278 34.3523 72.9061 34.7803C73.1627 35.0099 74.0801 35.4204 74.4324 35.583C74.778 35.7425 75.0963 36.0734 75.4499 36.1822C75.8356 36.3009 76.1486 36.1773 76.524 36.4084C77.8031 37.1955 76.7808 37.4546 75.563 37.1772C72.2169 36.4148 69.2471 33.5763 65.8286 33.3558C65.6158 33.342 64.9135 33.1286 65.4442 32.9035C67.4483 32.0533 70.0808 31.9312 72.239 31.9312C73.639 31.9312 72.8221 31.705 71.6059 31.0606C64.8311 27.4716 58.3192 23.5182 51.6961 19.6756C50.7542 19.1291 49.1701 18.5618 48.44 17.6857C47.9327 17.0769 49.8351 18.4382 50.5316 18.8163C52.7033 19.9952 54.9239 21.1037 57.0552 22.3551C59.1597 23.5908 60.7849 25.3788 62.7986 26.7079C63.1625 26.948 63.8589 27.6477 62.7081 27.1827C57.8344 25.2135 43.7633 18.0671 48.44 20.467C51.5514 22.0636 54.6026 23.6536 57.53 25.5773C58.9043 26.4804 60.3496 27.5482 61.8941 28.155C62.153 28.2567 63.2188 28.5999 62.0976 28.3811C58.0618 27.5937 54.0211 26.8626 49.9776 26.12C48.3749 25.8256 50.4507 26.2837 50.8143 26.3687C54.5258 27.2366 57.783 28.8624 61.2497 30.371C62.6865 30.9963 64.0803 31.6465 65.4442 32.4174C67.3001 33.4664 63.6481 31.5943 63.4995 31.5242C62.1894 30.9054 60.804 30.0996 59.3163 30.0996C59.2112 30.0996 59.5219 30.1455 59.6216 30.1788C60.6857 30.5335 61.6731 31.1245 62.6403 31.6825C63.8458 32.3779 64.9474 33.2079 66.0321 34.0567C67.0351 34.8417 68.2348 35.3292 69.243 36.0013" stroke="#5D1718" stroke-width="3" stroke-linecap="round"/>
<path d="M60.8992 27.2506C62.1499 27.478 63.5933 28.6092 64.6754 29.2404C65.6105 29.7859 67.3124 30.4207 68.0219 31.2189C68.1443 31.3567 68.8609 32.1644 68.2028 32.2478C65.8275 32.5489 62.2854 30.8993 60.1982 30.2127C54.8394 28.4498 49.5913 25.9195 44.0646 24.718C43.1816 24.5261 42.2785 24.4015 41.3738 24.4015C40.8965 24.4015 44.9314 24.58 44.9578 24.5824C50.952 25.1205 57.3004 26.2947 63.0134 28.2455C63.6151 28.4509 65.6188 28.8106 65.8286 29.5796C66.3182 31.3749 63.2064 30.7566 62.2333 30.6876C58.8734 30.4493 55.4759 30.1782 52.1032 30.3032C51.834 30.3131 52.6062 30.5079 52.872 30.5519C55.104 30.9217 57.2486 31.4623 59.4407 32.0104C60.5336 32.2836 61.6527 32.4641 62.742 32.7452C62.8546 32.7743 63.2802 32.8841 62.776 32.9035C60.9237 32.9748 58.9717 32.5816 57.1456 32.3834C50.2191 31.6317 43.3115 31.1842 36.4105 30.2353C36.1494 30.1994 33.6989 29.9845 34.0137 29.8961C35.7259 29.4155 37.9423 29.7155 39.6666 29.8283C42.2357 29.9964 44.707 30.474 47.219 30.9928C48.1616 31.1875 50.9851 31.7059 50.0229 31.6825C48.0128 31.6335 45.315 30.2232 43.5106 29.6248C39.5174 28.3005 35.5253 26.9584 31.4924 25.7582C30.5975 25.4918 28.1806 24.9507 28.9938 24.4919C29.4536 24.2325 30.0297 24.2818 30.554 24.2206C32.0082 24.0507 34.0234 23.8605 35.4382 23.7683C39.2383 23.5207 43.0568 23.4937 46.8459 23.904C48.2787 24.0591 49.7595 24.2047 51.1535 24.5937C51.4026 24.6632 51.9765 25.1044 51.7188 25.125C49.4543 25.3062 46.6561 24.0149 44.5056 23.497C41.6995 22.8212 38.9343 22.4605 36.06 22.2759C35.0614 22.2118 34.0647 22.1629 33.064 22.1629C32.0683 22.1629 36.2352 24.5565 36.2748 24.5824C39.635 26.7759 42.9567 29.0276 46.3258 31.2076C46.3525 31.2249 46.8525 31.5447 46.7894 31.592C46.592 31.7401 46.3151 31.4518 46.0884 31.3546C44.144 30.5213 42.2135 29.6438 40.2998 28.7429C38.2749 27.7898 36.3012 26.7483 34.3302 25.6903C33.9379 25.4798 33.4198 25.2806 33.1318 24.9102C32.8807 24.5874 33.1808 24.4523 33.5162 24.3449C36.7295 23.3167 40.3378 22.9989 43.6915 22.8186C45.9697 22.6961 52.8086 22.4389 50.5316 22.5812C46.7072 22.8202 42.6738 22.2917 38.8978 22.9317C38.0791 23.0704 39.279 23.9318 39.4631 24.1075C41.4498 26.0033 43.5685 27.8223 45.7944 29.4326C46.8364 30.1864 47.834 30.8075 49.0619 31.1963C49.5106 31.3384 50.0889 31.3807 50.5203 31.5694C51.0121 31.7846 49.6825 30.8979 49.2541 30.5745C46.9053 28.8011 44.5398 27.1087 41.973 25.6677C41.8623 25.6056 40.3833 25.0196 40.7972 24.5597C41.577 23.6933 43.8214 23.4238 44.8221 23.1352C47.6789 22.3115 50.6991 21.8088 53.4825 20.7609C54.0839 20.5345 55.3984 20.0295 55.8002 19.4268C55.8576 19.3407 55.7171 19.6301 55.6306 19.6869C53.9447 20.7933 51.739 21.4174 49.8194 21.9594C47.3791 22.6484 44.8991 22.9769 42.3687 22.9769C41.7431 22.9769 42.065 22.5685 42.3687 22.1516C44.2101 19.6236 46.2895 17.0458 48.4853 14.814C49.3626 13.9222 50.6426 13.2397 50.1925 15.0401C49.9184 16.1364 48.7608 16.8106 47.886 17.3805C46.3116 18.406 44.6294 19.1206 42.9227 19.8791C38.9362 21.6509 43.8063 15.6898 44.3699 14.6331C44.5405 14.3132 43.8399 15.1281 43.5785 15.3793C41.9374 16.9561 40.088 18.311 38.1064 19.4268C38.1058 19.4272 34.5357 21.2781 35.0086 20.4218C37.3272 16.2231 41.2155 12.5249 45.2744 10.0542C47.1182 8.9319 44.6472 11.2614 44.3247 11.5579C43.0601 12.7205 42.1275 14.1365 41.0912 15.4924C40.1343 16.7442 39.0636 17.8868 38.1403 19.1668C37.675 19.8119 36.8508 20.5297 36.8854 21.3941C36.9113 22.0421 40.8135 20.9996 41.4869 20.8401C41.8629 20.751 42.9297 20.5597 41.9956 20.4896C37.8457 20.1784 33.3428 21.1123 29.4008 22.3325C28.7241 22.5419 26.1372 23.5146 26.6422 21.8689C27.0182 20.6433 27.9134 19.5679 28.7225 18.6128C30.3281 16.7175 32.0617 14.8791 33.9232 13.2312C34.713 12.5321 36.0384 10.7139 37.2472 10.7665C37.6508 10.784 36.6128 11.2687 36.2748 11.4901C34.8109 12.4488 33.2676 13.4119 32.0238 14.6557C31.249 15.4306 30.6616 16.3807 29.8531 17.1204C29.1993 17.7186 28.3537 18.0871 27.6145 18.5676C27.3772 18.7219 27.0508 18.7801 27.1396 18.3415C27.702 15.565 30.6462 13.3453 32.6909 11.7388C35.0326 9.89887 37.6528 8.42398 39.938 6.51547C40.7691 5.82132 41.8579 3.93926 42.8549 3.55331C43.03 3.48554 42.8744 6.8731 42.8323 7.09207C42.4524 9.06744 42.0216 11.0459 41.566 13.0051C40.9074 15.8369 39.5377 18.2393 38.016 20.6931C37.335 21.7912 36.6444 22.884 35.9131 23.9492C35.8091 24.1007 35.5459 24.7506 35.3365 24.7972C34.8791 24.8988 34.8205 24.1309 34.8164 23.8814C34.7754 21.4257 36.9553 18.8283 37.9707 16.7586C39.568 13.5033 40.933 10.1403 42.5609 6.89987C42.8782 6.26826 43.4582 5.49784 43.5898 4.77435C43.6709 4.32841 43.254 4.99545 43.2506 5.00047C41.8841 7.01227 40.5338 9.01991 39.0787 10.97C37.7611 12.7359 36.8106 14.747 35.8113 16.7021C35.5664 17.1812 35.5822 17.9714 35.2573 18.2963" stroke="#5D1718" stroke-width="3" stroke-linecap="round"/>
<path d="M25.2489 17.1263C25.6446 17.9178 26.0707 18.7061 26.3646 19.5426C26.4256 19.7164 26.7591 20.7448 26.5296 20.9026C26.2914 21.0663 25.4243 20.8722 25.2225 20.8498C24.2696 20.7439 23.2621 20.4939 22.2979 20.5857C21.4914 20.6625 20.7899 21.1593 20.1391 21.5892C18.7153 22.5294 17.5475 23.6002 16.4223 24.8901C15.9947 25.3802 15.678 25.7999 15.1481 26.184C14.671 26.5299 14.098 26.7487 13.5901 27.0489C13.1846 27.2885 12.6721 27.771 12.2433 27.9269C12.1183 27.9724 11.7481 27.9768 11.636 27.9137C11.3825 27.7712 12.7313 27.5904 12.7385 27.5902C15.0849 27.5212 17.0615 27.9285 19.3205 28.5739C20.2704 28.8453 21.2389 29.0552 22.1856 29.3331C23.1823 29.6256 24.1152 30.0806 25.13 30.3168C28.4545 31.0904 32.0218 30.7921 35.4157 30.7921C35.4765 30.7921 35.9471 30.8047 35.6269 30.8647C33.2832 31.3042 30.6816 30.8744 28.3517 30.5808C25.8943 30.2711 23.4465 29.8781 21.0369 29.3001C20.0297 29.0584 18.8393 28.8575 17.9077 28.3626C17.8934 28.3551 17.452 28.135 17.4918 28.0985C17.6476 27.9556 18.0943 27.9031 18.1981 27.8873C19.4652 27.695 20.7631 27.7104 22.0404 27.7024C24.1723 27.6891 26.3251 27.6332 28.4508 27.8279C29.2758 27.9035 30.0965 28.0466 30.9264 28.0589C31.0893 28.0614 31.5743 28.0925 31.415 28.0589C30.0764 27.7771 28.7566 27.4053 27.4275 27.0819C24.935 26.4753 22.4328 25.9108 19.9278 25.3588C18.8448 25.1202 17.0779 25.0383 16.1912 24.2299C16.0911 24.1386 15.607 23.5989 15.9931 23.5037C16.2677 23.436 16.7734 23.6193 16.9702 23.6885C18.0441 24.0665 19.0577 24.5694 20.1523 24.8967C22.6643 25.6478 25.2888 26.0784 27.85 26.6329C29.5177 26.9941 31.2079 27.376 32.907 27.5572C33.3742 27.607 33.7618 27.5813 34.1613 27.8477C34.6126 28.1485 33.0975 27.6299 32.5769 27.478C29.4578 26.568 26.2118 25.6981 23.2749 24.2827C22.4361 23.8785 21.5547 23.3613 20.9643 22.6191C20.9047 22.5442 20.4762 21.899 20.6144 21.7608C20.7281 21.6471 23.1755 23.3086 23.3079 23.3849C24.3394 23.9783 25.3765 24.566 26.4108 25.1541C27.6414 25.8539 29.0361 26.3309 30.4049 26.6858C30.7979 26.7877 30.975 26.8678 31.1641 27.2271C31.2205 27.3343 31.3374 27.4475 31.3754 27.5572C31.4062 27.6464 31.3184 27.6903 31.2433 27.7024C30.6157 27.8042 29.8474 27.5539 29.2562 27.4384C24.8475 26.5769 20.3769 26.1708 15.9799 25.2202C15.9322 25.2098 15.5026 25.1013 15.8611 25.1013C17.1101 25.1013 18.4357 25.7417 19.6109 26.0784C22.3928 26.8753 25.3471 27.5669 28.2131 27.9929C29.805 28.2296 31.6939 28.1545 33.0852 29.1284C33.3644 29.3238 33.9337 29.7226 34.2801 29.7226C34.5085 29.7226 33.8658 29.5302 33.6596 29.4321C32.1033 28.6916 30.6252 27.7771 29.21 26.798C28.4332 26.2606 27.6943 25.6068 26.8201 25.2268C26.4692 25.0742 26.1387 24.9571 25.843 24.7052C25.5053 24.4175 24.678 23.6762 24.6547 23.1868C24.5989 22.015 25.3829 21.4709 26.2259 20.6913C27.5309 19.4844 28.8957 18.3516 30.2861 17.2452C31.0342 16.6498 31.7645 15.9554 32.5901 15.4627C33.5887 14.8668 33.0566 16.175 32.7287 16.6378C31.6698 18.1327 30.3763 19.4474 29.3288 20.9554C29.2177 21.1154 28.3219 22.1765 29.1043 21.5099C30.781 20.0817 32.495 18.6978 34.1679 17.265C35.3977 16.2117 36.5295 15.0074 37.7923 13.9971C37.8695 13.9353 38.2075 13.7417 38.1752 13.9113C37.7824 15.9738 35.5437 17.5522 34.1481 18.922C33.6815 19.38 33.1582 19.7607 32.6891 20.2094C32.4027 20.4833 32.3462 20.3487 32.4052 19.9783C32.4866 19.4679 32.8539 19.0245 33.105 18.5919C33.6089 17.7241 34.005 16.7596 34.6234 15.9644C34.8378 15.6888 35.0119 15.3779 35.2572 15.1326C35.597 14.7928 35.1659 15.4188 35.0394 15.5089C33.1324 16.8664 30.7711 17.5274 28.6686 18.5061C27.5995 19.0038 26.5248 19.4436 25.4337 19.8859C24.9868 20.0671 24.6704 20.5725 24.1794 20.5725C23.7801 20.5725 23.5755 20.6188 23.4928 20.15C23.3422 19.2963 24.1545 19.1537 24.8528 18.9088C27.4546 17.9965 30.0082 17.34 32.4646 16.004C33.7634 15.2977 34.9377 14.3974 36.2013 13.634C37.5378 12.8265 38.9722 12.2425 40.3406 11.5016C41.7443 10.7416 42.8164 9.2771 43.9716 8.20071C44.9579 7.28168 45.8243 6.24283 46.5859 5.13087C47.0345 4.47596 47.8455 3.79585 46.6915 3.58604C46.2135 3.49914 45.7891 3.69827 45.3316 3.69827" stroke="#5D1718" stroke-width="3" stroke-linecap="round"/>
<path d="M51.8673 7.14441C48.9196 8.64715 45.8606 10.0452 43.2256 12.0562C43.0523 12.1884 42.2045 12.9573 42.9681 12.6107C46.2414 11.1251 49.9773 10.5757 53.5442 10.2869C53.7872 10.2672 55.3135 9.95371 55.3135 10.4453C55.3135 12.0804 52.4582 12.4465 51.3062 12.7493C50.0114 13.0897 48.6869 13.2853 47.3913 13.6208C46.7908 13.7763 46.2118 13.9597 45.5956 14.0367C45.4443 14.0556 45.2666 14.0791 45.1269 14.1489C45.0206 14.2021 45.3646 14.1474 45.4834 14.1423C46.6064 14.0945 46.8295 14.0726 48.1835 14.0565C51.2257 14.0204 54.2667 14.1086 57.3072 14.1951C60.0893 14.2744 62.8568 14.3318 65.6123 14.7497C66.9322 14.9499 68.2293 15.145 69.5602 15.2514C69.7269 15.2648 70.1286 15.2614 70.2864 15.3967C70.4571 15.543 69.8765 15.6076 69.6526 15.6277C67.3991 15.8305 65.1291 15.8728 62.8725 16.0701C59.1326 16.3969 55.4081 16.7698 51.6495 16.7698C51.3588 16.7698 50.8387 16.7545 51.1147 16.2945C51.4625 15.7149 52.4549 15.3301 53.0028 15.0666C54.6198 14.289 56.3066 13.6928 58.0862 13.4293C58.9102 13.3074 59.8213 13.2049 60.6609 13.2049C60.8672 13.2049 60.8672 13.2049 60.6609 13.2049" stroke="#5D1718" stroke-width="3" stroke-linecap="round"/>
<path d="M74.3267 21.5232C77.7511 18.9984 81.431 16.9019 84.916 14.4724C86.4809 13.3814 87.9954 12.2197 89.524 11.0791C89.6595 10.978 90.2183 10.4756 90.4879 10.3793C90.9554 10.2123 90.4158 11.8959 90.3691 11.977C90.0935 12.4553 89.6491 12.8039 89.2138 13.1257C87.7495 14.208 86.489 15.3035 85.2329 16.6378C82.7507 19.2743 79.9273 21.6579 77.8653 24.6524C76.7939 26.2082 75.811 27.819 74.4389 29.135C74.2351 29.3306 74.0109 29.8121 73.7985 29.9537C73.7264 30.0018 73.9427 29.8567 74.0098 29.8018C76.5448 27.7278 78.9596 25.5041 81.4566 23.3849C84.8858 20.4745 88.6504 18.0191 92.112 15.159C92.629 14.7318 93.0986 14.2597 93.5842 13.799C93.677 13.711 94.0227 13.3858 93.9208 13.8387C93.6944 14.845 92.8219 15.7009 92.1978 16.4464C90.6029 18.3513 89.1024 20.2619 87.7548 22.355C86.543 24.2371 85.4453 26.1792 84.1766 28.0259C83.0436 29.6751 81.7177 31.2468 80.7701 33.0169C80.6725 33.1992 80.5832 33.3863 80.506 33.5781C80.4131 33.8088 80.0879 34.2704 80.3343 34.3043C80.4849 34.3249 80.6021 34.1532 80.7106 34.0468C81.2322 33.5351 83.5809 30.8256 83.6286 30.7723C86.034 28.0882 88.588 25.5429 90.9896 22.8567C92.6962 20.948 94.2022 18.8942 95.8288 16.9217C96.5197 16.0838 97.2445 15.2771 98.0536 14.5517C98.076 14.5315 98.4588 14.1507 98.5487 14.1357C98.674 14.1149 98.538 14.3948 98.4893 14.512C98.1779 15.2614 97.6684 15.962 97.2878 16.6774C95.0499 20.8834 92.4204 24.8818 90.039 29.0096C89.507 29.9318 88.9877 30.8949 88.2895 31.6965C87.4198 32.6951 86.6289 33.9636 85.9855 35.1097C85.6705 35.6707 85.4804 36.3765 85.048 36.8261C84.784 37.1007 84.6642 37.5392 84.1898 37.5656C83.7773 37.5885 83.8147 36.7413 83.8201 36.5093C83.8381 35.7266 84.0576 34.9751 84.3218 34.2448C84.9682 32.4586 85.7779 30.7167 86.5664 28.9898C87.2617 27.4673 88.1047 26.6263 89.2666 25.4644C89.6715 25.0595 90.6572 23.6917 90.4615 24.2299C90.1387 25.1176 89.145 25.9767 88.5998 26.6924C86.5042 29.4428 84.4904 32.4228 82.7242 35.4002C82.6277 35.5629 81.9185 36.5879 82.0508 36.8526C82.163 37.077 82.4013 36.4916 82.5525 36.2914C83.4418 35.1138 84.3176 33.9345 85.3253 32.8519C87.4204 30.601 89.7589 28.6872 91.6498 26.2369C91.7315 26.131 93.249 24.2557 92.5345 24.5534C87.9126 26.4792 84.2028 30.2419 79.6213 32.2577C79.3299 32.3859 79.0557 32.4418 79.1526 32.0596C79.4899 30.7292 80.0513 29.3838 80.7172 28.191C83.1943 23.7544 86.619 19.7323 89.8277 15.8192C91.0096 14.3779 92.2081 12.9811 93.571 11.7129C93.6371 11.6513 93.9999 11.2178 94.1453 11.1451C94.3621 11.0367 93.9057 11.5686 93.7558 11.7591C93.2182 12.4423 92.5425 13.0199 91.9139 13.6142C90.0266 15.3986 88.1314 17.092 86.0515 18.6448C85.3396 19.1763 84.647 19.7588 84.0181 20.3877C83.9992 20.4066 83.8326 20.5609 83.8597 20.5989C84.157 21.0151 84.8898 20.6068 85.3913 20.5065C87.6074 20.0633 89.6901 19.1444 91.8941 18.6514C92.9159 18.4228 92.3416 19.1727 91.8875 19.7671C90.3026 21.8416 88.4352 23.7111 86.6721 25.6295C84.6157 27.8669 82.6273 30.1741 80.5192 32.3633C80.2426 32.6505 79.0692 34.149 78.4858 34.1854C77.9023 34.2219 79.7035 30.7326 79.8326 30.5412C80.8479 29.0361 82.2357 27.9436 83.5296 26.699C84.5844 25.6844 83.5092 26.9943 83.0741 27.3063C81.3146 28.5682 79.1895 29.217 77.3899 30.4356C76.2875 31.1821 75.0495 32.4416 73.7193 32.766C72.8917 32.9679 72.9217 31.4198 72.9403 30.9769C73.0106 29.3082 74.3897 27.721 75.2641 26.3953C76.3569 24.7385 77.6706 23.3951 79.5685 22.6983C79.988 22.5443 80.6241 22.299 81.1001 22.355C81.4379 22.3947 81.0159 25.4646 80.9021 25.8473C80.7106 26.4916 79.7872 26.9742 79.1724 27.0621C78.4539 27.1647 77.6255 26.9105 76.9674 26.6726C75.1337 26.0095 73.4543 24.9962 71.9368 23.781C71.1517 23.1523 70.4192 22.4914 69.5998 21.9061C69.4845 21.8237 69.149 21.6339 69.2895 21.6156C70.3556 21.4765 71.9843 22.252 72.9073 22.6125C75.9758 23.8109 84.3453 29.0987 81.6811 27.1611C81.0383 26.6936 80.2541 26.3328 79.5817 25.92C78.2014 25.0725 76.8454 24.1857 75.4688 23.3321C74.0409 22.4466 72.6725 21.4709 71.237 20.5989C71.0188 20.4664 70.5298 19.9519 70.2468 19.9519C69.8327 19.9519 70.9508 20.3909 71.3229 20.5725C73.1461 21.4624 75.0539 22.1457 76.941 22.8831C79.2741 23.7949 81.6595 24.7275 83.8333 25.986C83.9625 26.0608 84.0745 26.1105 84.2162 26.151C85.0133 26.3788 82.7147 25.4475 81.9584 25.1079C77.5904 23.1468 72.9702 21.8928 68.5963 19.9321C68.5375 19.9058 67.9681 19.5653 68.2332 19.4568C68.7535 19.2439 70.2331 19.5055 70.6033 19.5426C74.3025 19.9132 77.9922 20.4572 81.6415 21.1667C84.0164 21.6284 86.3559 22.2986 88.745 22.6851C90.208 22.9217 85.7818 22.5562 84.3086 22.3946C79.9337 21.9148 75.863 20.5729 71.6992 19.2257C70.1387 18.7209 68.4574 18.4227 66.9261 17.8394C66.8033 17.7926 66.7042 17.682 66.9459 17.6545C68.341 17.4957 69.9203 17.6848 71.2965 17.7337C77.3611 17.9492 83.3805 18.3785 89.2864 19.8661C90.1469 20.0829 91.0184 20.3143 91.8083 20.7309C91.9875 20.8255 92.3982 20.9838 91.8347 20.9224C87.3327 20.4321 82.8136 19.0885 78.6047 17.4432C76.6597 16.683 74.6449 15.8187 72.531 15.7004C72.3077 15.6879 72.0805 15.7185 71.8576 15.6938C71.4149 15.6446 72.7458 15.6169 73.1912 15.6079C78.5099 15.5014 83.8345 15.3439 89.1543 15.3439C90.5229 15.3439 91.8963 15.348 93.2607 15.4693C93.6713 15.5058 94.2882 15.5204 94.6933 15.7004C95.0305 15.8503 93.971 15.8595 93.604 15.8984C91.7466 16.0955 89.8748 16.2475 88.0056 16.2351C85.7546 16.2202 83.5088 15.9462 81.2718 15.7268C79.035 15.5074 76.787 15.3227 74.5644 14.9808C72.7936 14.7084 71.0506 14.2727 69.3225 13.8057C69.1111 13.7485 68.5531 13.3952 69.0981 13.2973C70.561 13.0344 72.3011 13.2047 73.7325 13.3105C77.4508 13.5853 81.1408 14.127 84.8104 14.7761C88.316 15.3963 92.1082 16.0027 95.3864 17.4697C96.024 17.755 97.0453 18.4917 95.6505 18.7108C93.5382 19.0425 91.2513 18.699 89.1609 18.4401C85.8405 18.0289 82.5366 17.4338 79.2582 16.7699C76.3109 16.1729 73.3886 15.4693 70.4646 14.7695C69.8821 14.6301 69.1735 14.482 68.6887 14.0895C68.5307 13.9615 68.1289 13.4521 68.5831 13.4293C70.143 13.3514 72.1409 13.8184 73.6137 14.0103C79.4721 14.7735 85.3293 15.5536 91.1745 16.4134C92.414 16.5957 93.8946 16.7137 95.1224 17.1066C95.2321 17.1417 95.5404 17.2573 95.4261 17.2716C94.791 17.351 93.6527 17.0541 93.122 16.9745C91.1335 16.6762 89.1455 16.403 87.1474 16.1757C79.793 15.339 72.0305 15.12 65.2822 11.7459C65.0387 11.6241 62.9452 10.3237 64.3382 10.5312C66.0286 10.7829 67.7105 11.1871 69.3885 11.5016C72.5664 12.0972 75.7642 12.6029 78.9281 13.2709C83.1171 14.1554 87.0989 15.7055 91.3329 16.387C91.9377 16.4843 93.7543 16.7512 93.155 16.6246C89.6448 15.883 86.0167 15.4873 82.4733 14.9214C78.4386 14.277 74.3828 13.6775 70.4316 12.6107C68.9218 12.2031 67.4746 11.6116 65.9688 11.1913C65.7202 11.122 65.1607 11.1221 65.1436 10.7622C65.1159 10.1817 79.551 10.8147 80.2353 10.8348C85.0535 10.9765 89.8711 11.1278 94.6867 11.3432C96.1866 11.4102 97.7671 11.4175 99.2617 11.6535C99.267 11.6543 100.279 11.834 99.7304 11.977C97.4459 12.5729 94.6847 12.0671 92.3892 11.8185C88.9399 11.4449 85.5326 10.763 82.064 10.5774C79.4433 10.4371 76.8378 10.6242 74.2607 10.0756C73.3785 9.88784 72.4758 9.70306 71.6067 9.46166C71.5484 9.44546 71.3759 9.38956 71.4351 9.40225C71.6904 9.45695 71.9514 9.59289 72.1811 9.69933C74.0537 10.5671 75.8273 11.5807 77.6276 12.5843C79.9557 13.8822 82.3923 15.0191 84.9688 15.7268C85.8082 15.9573 86.8363 16.2945 87.7284 16.2945C88.0196 16.2945 88.1113 16.1017 88.1113 15.8324C88.1113 14.7234 86.7577 14.2746 85.9327 13.8189C85.175 13.4003 84.399 13.023 83.6682 12.5579C83.3867 12.3787 83.2147 12.2542 82.8826 12.2542" stroke="#5D1718" stroke-width="3" stroke-linecap="round"/>
<path d="M94.5185 14.2369C95.8249 14.0461 97.1259 13.8295 98.4235 13.5855C99.6666 13.3517 100.912 13.1166 102.142 12.8223C102.711 12.6865 103.267 12.4929 103.84 12.3794C104.057 12.3363 104.206 12.3191 104.417 12.3012C104.49 12.295 104.637 12.2205 104.637 12.2937C104.637 12.3099 104.61 12.3131 104.596 12.3198C104.394 12.4107 104.129 12.4971 103.937 12.558C103.074 12.8312 102.195 13.0473 101.331 13.3137C99.9718 13.7325 98.6002 14.2294 97.3216 14.8549C96.3551 15.3277 95.427 15.878 94.4887 16.4035C93.8716 16.7491 93.227 17.0711 92.6647 17.5054C92.3638 17.7377 91.5175 18.4399 91.8829 18.3355C92.4323 18.1785 92.9589 17.8786 93.4911 17.6766C94.4829 17.3002 95.5163 17.0872 96.5176 16.7422C98.7721 15.9655 100.593 14.5193 102.492 13.1276C102.583 13.0614 103.377 12.3533 103.628 12.3533C103.907 12.3533 103.511 12.9154 103.349 13.1425C102.41 14.4568 101.291 15.6634 100.285 16.9246C98.7984 18.7885 97.3413 20.6794 96.0299 22.6723C94.8053 24.5333 93.8336 26.5457 92.4637 28.3083C92.3039 28.5138 92.0501 28.9525 91.7824 29.064C91.4231 29.2137 92.2715 28.4576 92.5344 28.1706C94.1626 26.3931 95.7597 24.6365 97.1653 22.6723C97.9956 21.512 98.7553 20.3154 99.7339 19.2736C100.052 18.935 100.332 18.5917 100.579 18.1978C100.798 17.848 100.969 17.3862 101.279 17.1033C101.748 16.6753 102.325 16.4149 102.775 15.9642C103.557 15.1825 104.347 14.3646 105.299 13.7828C105.63 13.5809 105.917 13.3878 106.193 13.1053C106.395 12.8975 106.499 12.65 106.717 12.4538C107.025 12.1773 107.339 11.982 107.697 11.7726C107.919 11.6418 108.131 11.3934 108.374 11.3035C108.72 11.1754 108.984 10.8646 109.305 10.6558C109.948 10.2369 110.651 9.9585 111.333 9.61719C111.813 9.37736 111.797 9.67339 111.348 9.81821C110.536 10.0804 109.641 10.065 108.798 10.0974C107.269 10.1562 105.75 10.3146 104.242 10.5813C102.762 10.8432 101.329 11.2216 99.8195 11.2216C99.4449 11.2216 100.027 11.1303 100.073 11.1248C101.859 10.909 103.678 11.1513 105.47 11.1546C106.655 11.1568 107.947 11.2366 109.111 10.9536C109.718 10.8061 108.583 10.7056 108.538 10.7005C104.994 10.2955 101.371 10.8837 97.8465 10.2873C97.4511 10.2203 97.0663 10.1948 96.6739 10.1458C96.36 10.1066 97.2415 9.82909 97.5562 9.79588C99.5543 9.58496 101.611 9.74748 103.617 9.74748C105.198 9.74748 106.774 9.72631 108.352 9.62836C108.756 9.60326 109.314 9.69107 108.53 9.68048C107.593 9.66781 106.665 9.48364 105.735 9.39011C104.046 9.22041 102.34 9.27798 100.646 9.17793C98.1432 9.03013 95.5664 9.29878 93.0853 8.93968C91.4249 8.69936 89.7947 8.80939 88.1306 8.80939C88.0647 8.80939 87.8202 8.84894 87.7657 8.7945C87.4088 8.43753 88.7654 8.59224 89.2697 8.61582C93.382 8.80804 97.3627 9.58372 101.338 10.5776C102.767 10.9347 98.4512 9.99611 97.0164 9.66559C95.4461 9.30385 94.0339 8.63453 92.4264 8.45947C91.9554 8.40817 91.6442 8.14166 91.2352 8.00531" stroke="#5D1718" stroke-width="3" stroke-linecap="round"/>
<path d="M81.3852 8.0053C83.2747 8.04729 85.1617 8.28706 87.0212 8.61581C89.0048 8.96649 90.9715 9.50257 92.9774 9.7177C94.0979 9.83787 95.2252 9.81448 96.3501 9.81448C96.5865 9.81448 96.7928 9.8759 96.9382 9.67303C97.2699 9.21021 97.4636 8.89007 97.169 8.38129C97.0639 8.19968 96.662 8.20632 96.4617 8.20632C95.8514 8.20632 95.2521 8.18679 94.6451 8.10954C93.4504 7.95748 92.2114 8.09794 91.0081 8.06859C89.237 8.02539 87.4584 7.69036 85.6885 7.56604C85.0337 7.52004 84.3716 7.50692 83.7156 7.48414C82.7823 7.45174 81.8916 7.33246 80.9683 7.23101C79.387 7.05723 77.7714 6.99331 76.181 6.94809C74.6037 6.90324 73.1324 7.46925 71.5725 7.46925C70.6016 7.46925 69.6359 7.40224 68.6651 7.40224C68.4726 7.40224 68.4231 7.35673 68.7508 7.29057C71.0966 6.81689 73.7142 7.22372 76.0284 7.68516C78.2532 8.12876 80.4832 8.71896 82.61 9.51295C82.8682 9.60936 83.1416 9.70832 83.3805 9.85171C83.4136 9.87154 83.4678 9.9043 83.4438 9.95222C83.2766 10.2867 81.8598 9.93109 81.6384 9.9001C79.6198 9.61772 77.5888 9.44866 75.578 9.11091C74.3128 8.8984 73.1444 8.59899 71.9224 8.23238C71.6557 8.15239 71.4069 8.13932 71.1332 8.13932" stroke="#5D1718" stroke-width="3" stroke-linecap="round"/>
<path d="M71.1332 8.1393C69.124 8.0289 67.0575 7.30484 65.192 6.58325C64.0865 6.15568 63.0612 5.55983 61.9384 5.16867C61.6256 5.05968 61.2206 5.02682 60.9184 4.88947C60.7337 4.80549 60.7147 4.61573 60.8961 4.50605C61.1664 4.34258 61.4286 4.43152 61.7225 4.4986C62.7364 4.73004 63.7137 4.76247 64.749 4.79641C66.0979 4.84063 67.4014 5.21574 68.7508 5.25429C69.7285 5.28222 70.7058 5.32502 71.6842 5.32502C72.3592 5.32502 73.0342 5.32502 73.7092 5.32502C73.8695 5.32502 74.1427 5.38045 74.2155 5.52604" stroke="#5D1718" stroke-width="3" stroke-linecap="round"/>
<path d="M10.5701 30.6901C12.1057 30.8707 13.9912 31.3183 15.3889 31.9922C16.8363 32.6901 18.3276 33.5274 19.9035 33.9026C20.663 34.0834 21.4263 34.1065 22.2036 34.1117C24.4999 34.1269 26.7737 34.1989 29.0659 34.3683C33.2946 34.6808 37.5275 35.0335 41.6879 35.8985C44.0759 36.3951 46.4171 37.0997 48.7402 37.8375C50.8771 38.5161 52.8158 39.7898 54.9752 40.3657C55.4105 40.4818 55.6775 40.5554 56.0777 40.6983C56.0856 40.7011 56.5788 40.9307 56.3058 40.9169C55.4451 40.8735 52.4261 40.4303 52.371 40.4227C47.0359 39.6888 41.7036 38.9499 36.3558 38.3127C33.2121 37.9381 30.06 37.5367 26.9083 37.2292C25.1165 37.0544 27.9455 37.1672 28.0204 37.1722C31.3575 37.391 34.6851 37.8689 38.0001 38.2937C43.6871 39.0224 49.3995 39.5948 55.0703 40.4417C57.7714 40.8451 60.5668 41.1764 63.1966 41.9434C63.3256 41.981 64.554 42.2456 64.6318 42.4947C64.645 42.5367 65.3053 43.0006 64.8409 42.9699C60.5383 42.6854 56.017 41.1318 51.8767 40.0995C46.3754 38.7279 40.7127 37.5443 35.3103 35.8035C34.9187 35.6773 34.0302 35.6927 34.1793 35.3093C34.494 34.5 38.4659 35.0178 38.7985 35.0431C42.0209 35.2889 45.0775 36.062 48.227 36.7159C51.7973 37.4572 55.443 37.7097 59.0241 38.4077C61.3141 38.8541 63.6455 39.1698 65.9054 39.7574C66.8822 40.0114 67.7772 40.462 68.7378 40.7459C69.6512 41.0157 70.2753 41.5995 71.2565 41.8294C73.9524 42.4608 76.7101 42.6026 79.4018 43.141C79.5174 43.1641 79.7785 43.2758 79.687 43.3501C79.5197 43.486 79.255 43.3918 79.0407 43.3691C77.2333 43.1777 75.429 42.9283 73.6231 42.7228C68.853 42.18 64.088 41.5993 59.4423 40.3467C58.361 40.0551 56.7577 39.7912 55.7736 39.1586C55.537 39.0065 55.7745 39.021 56.0587 38.997C57.1611 38.904 58.6669 38.9322 59.6704 38.959C64.5429 39.0894 69.4133 39.5423 74.2124 40.4037C76.0873 40.7402 77.9761 41.4412 79.8581 41.6393C80.468 41.7035 81.3715 42.9357 81.5499 43.4261C82.041 44.7768 79.5495 44.2055 78.6415 44.2055C73.2629 44.2055 68.0435 42.9907 62.826 41.7343C58.8133 40.7681 54.8402 39.552 50.7742 38.8259C46.7164 38.1013 42.5548 37.9812 38.4373 38.0561C35.3878 38.1115 32.3457 38.2619 29.294 38.2177C27.0301 38.1848 24.8754 37.7426 22.6503 37.3717C20.5241 37.0174 18.3181 36.9419 16.2157 36.4688C14.7135 36.1308 13.353 35.6157 11.7961 35.4803C10.9255 35.4046 9.84118 34.9909 9.16338 34.4158C8.59648 33.9348 7.77523 33.6245 7.31 33.0662C6.88831 32.5602 6.1246 32.0029 5.52315 31.7356C5.20552 31.5944 4.9104 31.3744 5.53265 31.3744C6.19317 31.3744 6.738 31.9622 6.97734 32.5339C7.18716 33.0352 7.00775 33.5468 7.17694 34.0262C7.51712 34.99 10.1135 35.614 10.8742 35.8795C13.5602 36.8171 16.3724 37.3673 19.1526 37.942C23.3618 38.8121 27.5038 39.6569 31.6701 40.7078C34.3321 41.3793 36.8382 42.489 39.4923 43.1695C45.8808 44.8076 52.5161 44.0633 59.0241 44.0344C61.2268 44.0246 63.4939 43.9004 65.6868 44.1295C66.7371 44.2392 69.8764 44.6552 68.8233 44.5762C67.9168 44.5082 66.9481 44.1762 66.1335 43.9109C62.8162 42.83 60.1322 41.7503 56.8096 40.4607C51.5138 38.4052 46.05 35.726 40.3763 34.834C39.3658 34.6752 38.3285 34.6249 37.3063 34.6249C36.5849 34.6249 38.746 34.8207 39.4258 35.0621C42.5171 36.1599 45.3971 37.8197 48.322 39.2822C51.4852 40.8637 54.7062 42.1594 57.9977 43.4356C59.5612 44.0419 61.1551 44.6795 62.6073 45.5266C62.8759 45.6833 64.0836 46.3655 64.1756 46.7337C64.2345 46.9693 63.6861 46.7076 63.4533 46.6387C61.9029 46.1799 58.9896 45.1615 57.7886 44.7568C48.5419 41.6407 39.2133 38.9263 29.8452 36.2122C27.6141 35.5658 25.3899 34.8826 23.1731 34.1877C23.1295 34.1741 23.0135 34.1071 23.059 34.1117C24.4212 34.2499 25.8181 34.6509 27.1269 34.9956C31.5616 36.1635 35.946 37.5163 40.3763 38.7024C45.5354 40.0836 50.5611 41.5219 55.5265 43.5022C58.3386 44.6237 61.1465 45.7575 64.0235 46.7052C64.2588 46.7827 64.9649 46.9628 64.7174 46.9713C62.368 47.0523 57.8355 45.8311 56.0207 45.4791C46.7603 43.6828 37.5009 41.8008 28.3435 39.5293C26.7763 39.1405 25.2439 38.6956 23.6578 38.3982C22.8689 38.2503 25.2617 38.2196 26.0624 38.2747C32.9088 38.7452 39.6246 39.788 46.2881 41.4207C49.332 42.1665 52.5554 42.8299 55.5265 43.8633C55.842 43.9731 56.1181 44.0501 56.4579 43.9964C58.593 43.6593 60.5859 43.0947 62.7784 42.9889C66.928 42.7887 70.3951 43.587 74.2124 44.9849C74.448 45.0712 76.9168 45.4658 76.9497 45.7452C77.0186 46.3307 76.2051 46.9587 75.7236 47.0854C73.4588 47.6814 71.1993 46.1334 69.0989 45.5266C67.1715 44.9698 70.3904 45.0814 70.7717 45.1179C73.1542 45.3462 75.6087 45.6002 77.9572 46.0779C78.3534 46.1585 78.7051 46.2312 79.0027 46.4296" stroke="#F9F8E2" stroke-width="3" stroke-linecap="round"/>
<path d="M84.6483 42.3236C86.2109 41.0401 87.3352 39.1491 88.6022 37.5903C90.2827 35.5228 92.2879 33.7698 94.0958 31.8211C94.9387 30.9125 95.3733 29.7262 96.2248 28.8747C97.2461 27.8534 98.1304 26.8246 99.2853 25.9378C102.016 23.8407 103.91 21.028 106.879 19.2466C109.186 17.8626 111.243 16.5898 113.257 14.7795C113.521 14.5425 115.572 13.1344 115.262 12.6695C115.154 12.5071 115.043 12.9926 114.949 13.1637C114.634 13.7385 114.312 14.3123 114.027 14.903C113.142 16.7383 112.206 18.3722 111.052 20.083C109.826 21.9006 108.947 24.2136 107.459 25.8237C106.114 27.279 104.095 28.0229 102.488 29.1408C101.354 29.93 100.411 30.9425 99.2473 31.726C97.8706 32.6529 96.3059 33.4453 95.0273 34.5109C94.0105 35.3582 93.3458 36.4549 92.5561 37.4953C91.6289 38.7169 90.5108 39.5742 89.3911 40.6128C88.6287 41.3199 88.098 42.1755 87.3951 42.9224C87.316 43.0065 86.9306 43.787 86.9104 43.5782C86.7787 42.217 89.1387 40.1716 89.8758 39.2821C91.9533 36.7752 94.1641 34.3824 96.4149 32.0302C98.0926 30.277 99.6908 28.3611 101.443 26.6886C102.946 25.2542 104.634 24.0487 106.11 22.5732C107.249 21.4341 108.398 20.2707 109.436 19.0375C109.466 19.0019 109.858 18.3889 109.883 18.4292C110.329 19.1434 109.671 21.1191 109.303 21.7558C108.847 22.5447 108.049 23.1897 107.421 23.8278C106.204 25.0645 105.013 26.3154 103.924 27.6676C103.07 28.7263 102.319 29.8917 101.262 30.7661C100.598 31.3157 99.8618 31.7634 99.1713 32.2773C97.8382 33.2693 96.7792 34.5052 95.6166 35.6799C94.1993 37.112 92.6318 37.8172 91.0354 38.94C90.1396 39.57 89.3585 40.5955 88.6878 41.4492C87.8521 42.5128 85.3082 46.0439 83.7169 44.4526C83.014 43.7497 83.5903 45.4045 84.0495 45.6597C86.1619 46.8332 85.8022 41.4265 86.3782 40.3466C86.8395 39.4817 87.6554 38.7149 88.1935 37.885C89.5458 35.7993 90.8378 33.857 92.5181 32.0207C94.8322 29.4916 96.2435 26.2616 98.8956 24.0654C100.75 22.5294 102.231 20.6515 104.028 19.066C105.173 18.0561 106.495 17.4108 107.801 16.6614C109.672 15.5883 111.58 14.5761 113.457 13.5154C114.087 13.1591 114.698 12.6626 115.234 12.1752C115.558 11.8807 116.469 10.8345 116.469 11.7855C116.469 12.617 116.858 14.572 116.317 15.2832C114.399 17.8072 112.457 20.5746 111.147 23.4856C110.927 23.9746 110.596 24.9872 110.139 25.2154" stroke="#F9F8E2" stroke-width="3" stroke-linecap="round"/>
<path d="M6.59259 37.9033C9.4377 38.6902 12.2066 39.7246 14.8514 41.0339C17.5916 42.3904 20.4987 43.1692 23.4607 43.8842C28.9526 45.2098 34.1727 47.1973 39.8616 47.7391C45.033 48.2316 50.2579 47.9571 55.4448 47.9961C59.0291 48.0231 62.7432 48.8605 66.1918 49.7834C70.1431 50.8408 74.3762 51.5694 78.434 50.8931C79.3376 50.7425 80.0359 50.309 80.9806 50.309C81.5829 50.309 81.7192 50.3084 80.9572 50.4142C77.8349 50.8478 74.717 51.1501 71.5653 51.1501C66.1779 51.1501 60.9134 49.967 55.5149 49.8885C50.6729 49.8181 45.8795 49.0686 41.1582 48.0195C39.0029 47.5405 36.8042 47.2862 34.6633 46.8163C31.8727 46.2037 29.2736 45.0158 26.568 44.1646C24.1181 43.3938 21.6403 43.3503 19.1152 43.1483C18.5272 43.1012 17.0957 42.9008 16.6971 42.4357C16.436 42.131 16.3886 41.9745 16.9892 41.9451C20.2336 41.786 23.7224 43.0972 26.7316 44.1412C30.0623 45.2968 33.4924 45.8248 36.6492 47.4821C38.1449 48.2674 39.4217 48.2064 41.0765 48.2064" stroke="#5D1718" stroke-width="3" stroke-linecap="round"/>
<path d="M50.7488 50.0987C45.7366 50.0987 40.6749 49.6787 35.7263 48.8839C31.4087 48.1904 27.2514 46.203 23.0519 44.9822C21.3184 44.4783 19.5407 44.5946 17.8536 44.001C16.5616 43.5464 15.3961 43.2877 14.0454 43.0548C12.7066 42.824 11.2722 42.6839 9.95688 42.5291C9.73848 42.5034 9.70227 42.3234 9.76998 42.1203C10.0553 41.2643 14.7292 42.766 15.1201 42.8679C21.201 44.4526 27.0257 46.69 32.9695 48.697C35.4974 49.5505 38.1002 50.9236 40.7961 51.1034C42.4018 51.2104 44.0241 51.1501 45.6323 51.1501C47.5205 51.1501 49.3189 51.5998 51.1927 51.7458C56.3484 52.1476 61.6746 51.7809 66.846 51.7809C70.1572 51.7809 73.4688 51.7865 76.7519 52.2482C77.903 52.41 79.4695 52.5074 80.1863 53.463" stroke="#5D1718" stroke-width="3" stroke-linecap="round"/>
<path d="M83.5506 49.6783C86.0263 48.3029 87.0468 45.5784 89.1577 43.8141C90.5039 42.6889 91.9225 41.8413 93.1645 40.5783C94.7977 38.9174 96.2777 37.1632 98.1291 35.7305C100.027 34.2616 102.14 33.3959 103.713 31.4784C104.702 30.2728 105.255 29.0415 106.493 27.9973C107.435 27.2029 108.535 26.63 109.53 25.9063C111.894 24.1874 113.623 21.696 116.119 20.1707C116.341 20.0351 117.347 19.6226 117.567 19.867C118.063 20.4179 116.122 22.0841 115.722 22.3435C115.128 22.7277 114.868 23.4406 114.25 23.8621C113.01 24.7065 111.642 25.4991 110.5 26.4671C108.314 28.3201 107.073 31.0325 105.161 33.1138C103.869 34.5214 102.803 35.9862 101.412 37.2958C100.179 38.4563 99.0308 39.665 97.8371 40.8587C96.2391 42.4567 94.4547 43.8313 92.8491 45.4028C91.8149 46.415 90.9502 47.5549 89.8586 48.5101C89.0764 49.1946 88.0055 49.5455 87.2419 50.3091C86.7218 50.8292 86.1287 51.3054 85.6532 51.7809" stroke="#5D1718" stroke-width="3" stroke-linecap="round"/>
<path d="M86.4943 46.9448C90.397 46.8447 92.7731 44.6636 95.419 42.2721C96.1278 41.6315 96.6647 40.8494 97.3815 40.2162C98.1241 39.5602 98.9115 39.08 99.5426 38.3004C100.234 37.4463 100.928 36.5856 101.587 35.7071C101.995 35.1629 102.421 35.0228 102.942 34.574C104.169 33.5174 105.171 32.4106 106.598 31.5952C108.494 30.5118 110.324 29.5775 111.913 28.044C113.05 26.947 114.191 25.9052 115.406 24.9601C115.835 24.6262 116.511 24.115 116.726 23.6051C116.846 23.3208 116.617 22.7548 116.901 22.5654C117.333 22.2779 117.404 22.2708 117.404 21.7126" stroke="#5D1718" stroke-width="3" stroke-linecap="round"/>
<path d="M118.455 18.5587C118.455 19.6801 118.455 20.8015 118.455 21.9229C118.455 23.1317 118.455 20.7674 118.455 20.4043C118.455 19.656 118.476 19.0435 118.245 18.3484" stroke="#5D1718" stroke-width="3" stroke-linecap="round"/>
<path d="M118.245 18.3484V18.7689" stroke="#5D1718" stroke-width="3" stroke-linecap="round"/>
<path d="M7.01312 39.7957C7.01312 42.1154 6.82732 44.5755 7.01312 46.898C7.05376 47.406 7.6093 46.5204 7.63224 46.3139C7.71507 45.5685 7.46155 45.2321 8.48499 45.3093C9.54471 45.3893 10.5444 45.76 11.5806 45.9635C12.0759 46.0608 12.7154 46.0032 13.181 46.2205C13.8106 46.5143 11.7776 46.5242 11.5572 46.5242C11.5033 46.5242 10.5477 46.4904 10.611 46.4308C11.2772 45.8037 12.9932 46.3683 13.6249 46.5709C15.824 47.2763 17.9122 48.3842 19.9563 49.4446C21.2033 50.0915 22.2138 50.595 20.0731 50.7062C17.9077 50.8187 16.1275 50.1839 14.0688 49.6782C13.0102 49.4182 10.722 49.4855 9.91014 48.6736C9.35881 48.1223 10.8081 47.6467 11.125 47.5756C14.4096 46.8377 17.84 48.1885 21.0543 48.7437C21.1203 48.7551 22.4626 48.7836 22.3042 49.0474C21.7469 49.9763 17.8397 48.6581 17.1176 48.5218C15.926 48.2967 12.3421 47.7858 13.5548 47.7858C16.8612 47.7858 20.1222 48.3117 23.3205 49.1409C26.7055 50.0185 30.0382 51.0027 33.4835 51.6407C35.0687 51.9343 36.7062 51.8887 38.2379 52.4117C40.2495 53.0986 42.3835 53.2921 44.4057 53.977C44.6976 54.0759 47.4004 54.7136 46.6836 54.8181C44.7502 55.1001 42.5186 54.8687 40.6092 54.7947C36.4968 54.6356 32.3713 54.4423 28.2735 54.0471C26.0027 53.8282 23.7742 53.6097 21.5449 53.136C15.441 51.8389 33.8664 55.1649 40.0719 55.8227C45.7421 56.4238 51.39 57.1519 57.0802 57.5399C59.7884 57.7246 62.5093 57.6684 65.2222 57.6684C65.5805 57.6684 67.2024 57.4106 67.5235 57.7852C67.758 58.0588 66.807 57.9412 66.4488 57.902C63.5648 57.5866 60.7225 56.8263 57.8979 56.1965C55.0238 55.5557 52.1563 54.9548 49.2302 54.6078C49.0963 54.592 47.465 54.6052 48.4358 54.1639C49.5816 53.6432 50.8794 53.5606 52.1155 53.5331C55.7497 53.4524 59.4059 53.756 63.0378 53.8719C65.0018 53.9346 66.972 54.3041 68.9252 54.3041C69.9432 54.3041 70.4288 54.7654 71.3083 55.1452C72.9228 55.8424 74.9043 55.6091 76.6351 55.8694C78.1796 56.1018 79.8132 56.0073 81.331 56.325C82.0057 56.4662 82.6236 56.7379 83.3169 56.804C84.2118 56.8892 83.9838 56.9706 83.13 57.2595C82.1014 57.6077 79.3919 58.4246 78.177 57.7852C77.0511 57.1926 76.0979 56.5012 74.8711 55.9979C73.7906 55.5546 72.6917 55.4484 71.5302 55.3555C69.7387 55.2121 67.9568 54.9349 66.1567 54.9349C65.9932 54.9349 65.5026 54.9349 65.6661 54.9349C66.8771 54.9349 68.0881 54.9314 69.2991 54.9466C72.5639 54.9877 75.6538 55.2688 78.8312 55.9863C79.6647 56.1745 80.4367 56.9575 81.2376 57.0376C82.2847 57.1423 82.2889 55.3246 82.2889 54.6429C82.2889 54.125 82.2889 55.6786 82.2889 56.1965C82.2889 56.9638 82.647 58.1991 81.5647 58.0422C80.2111 57.846 79.0823 57.1105 77.6747 57.0493C76.2229 56.9862 74.7831 57.1022 73.3409 57.2595C71.7165 57.4367 70.3104 58.0731 68.7617 58.4861C68.6451 58.5172 68.2948 58.546 68.3996 58.4861C69.2356 58.0084 70.924 58.2076 71.7872 58.2408C74.9907 58.364 77.7361 59.7711 80.817 59.7711" stroke="#F9F8E2" stroke-width="3" stroke-linecap="round"/>
<path d="M85.6532 56.8273C86.7869 55.7967 88.0124 54.9317 89.0526 53.7901C90.7063 51.975 92.1736 49.9926 93.8186 48.1713C94.1139 47.8444 94.8444 47.073 94.356 47.9727C93.8509 48.9031 93.5459 49.9163 93.0126 50.8347C91.2013 53.9542 88.4481 56.2702 86.0971 58.9884C85.7243 59.4195 84.6171 61.022 83.8776 60.8107C82.8835 60.5267 87.4091 56.0764 87.7092 55.8227C89.5155 54.2954 91.4415 52.9191 93.2229 51.3604C94.5478 50.2011 95.7304 48.9123 97.1245 47.8325C97.9052 47.2279 98.6405 46.5693 99.4375 45.9869C100.343 45.3251 100.793 44.1547 101.423 43.2534C102.303 41.9948 103.135 40.5594 104.274 39.5153C105.121 38.7382 105.981 38.1259 106.727 37.2257C107.597 36.1754 108.491 35.116 109.051 33.8614C109.416 33.0452 109.696 32.6367 110.43 32.1326C112.011 31.0457 109.034 34.645 108.771 34.9011C107.397 36.2378 105.817 37.3437 104.414 38.6509C102.301 40.6193 100.414 42.7598 98.6782 45.064C97.3624 46.8108 96.2043 48.5706 94.6247 50.0871C94.2608 50.4364 93.8043 50.9239 93.5032 51.3253C92.6301 52.4895 95.8443 49.5887 96.9259 48.6152C99.1662 46.599 101.356 44.4703 103.76 42.6459C105.649 41.2119 107.711 40.2702 109.811 39.2116C110.505 38.8617 111.838 38.7232 112.357 38.1602C112.716 37.7716 113.084 37.3946 113.455 37.0154C114.77 35.6723 115.91 34.0751 117.077 32.5998C117.385 32.2098 118.034 31.667 118.034 31.1747" stroke="#F9F8E2" stroke-width="3" stroke-linecap="round"/>
<path d="M118.876 24.0256C118.876 25.3661 119.004 26.7679 118.864 28.1024C118.824 28.4775 118.662 28.4107 118.362 28.4879C117.494 28.711 116.805 29.3599 116.142 29.9247C113.6 32.0903 111.516 34.6483 109.495 37.2841C109.151 37.7326 108.761 38.1353 108.362 38.534C107.066 39.8305 110.722 35.7242 111.808 34.2469C113.543 31.8876 115.344 29.615 117.427 27.5534C117.673 27.31 118.948 25.8809 119.378 25.9764C119.77 26.0634 119.171 26.8736 119.086 26.9693C117.216 29.0657 115.584 31.371 113.689 33.4409C111.605 35.717 109.175 37.5207 107.311 40.0059" stroke="#F9F8E2" stroke-width="3" stroke-linecap="round"/>
<path d="M6.59259 51.3604V55.776" stroke="#5D1718" stroke-width="3" stroke-linecap="round"/>
<path d="M83.3403 63.3456V66.9202" stroke="#5D1718" stroke-width="3" stroke-linecap="round"/>
<path d="M82.9197 66.9202C83.9518 66.1461 85.2038 65.7225 86.2373 64.9343C88.0263 63.5698 89.5059 61.7653 91.1669 60.25C93.8069 57.8415 96.6352 55.7353 98.9001 52.9607C100.749 50.6963 103.515 49.5918 105.465 47.4821C106.917 45.9115 108.226 44.1713 109.846 42.7627C110.904 41.8422 112.171 41.3397 113.362 40.6367C115.202 39.5505 116.466 37.8129 117.941 36.3379C118.384 35.8951 118.988 35.2293 119.506 34.9128C119.785 34.7427 120.657 33.9206 120.768 33.6979" stroke="#5D1718" stroke-width="3" stroke-linecap="round"/>
<path d="M120.768 30.1234C120.741 30.6145 120.341 33.0702 119.927 33.2774" stroke="#5D1718" stroke-width="3" stroke-linecap="round"/>
<path d="M84.8122 63.3457C87.9908 63.2012 89.7537 60.7862 91.7744 58.6497C93.6745 56.6405 96.0263 55.2233 97.8488 53.1477C99.7962 50.9298 102.074 48.5306 104.764 47.2602C106.036 46.6598 106.477 45.3279 107.521 44.6318" stroke="#5D1718" stroke-width="3" stroke-linecap="round"/>
<path d="M10.5877 54.3041C9.91359 54.1693 9.33793 53.4967 8.64854 53.2761C8.2595 53.1516 7.98362 53.0437 7.73738 52.7271C7.3382 52.2139 8.06462 52.1938 8.485 52.2014C9.79846 52.2253 10.8222 53.0663 11.9427 53.6266C14.0813 54.6959 16.3765 55.2745 18.5428 56.29C18.9272 56.4702 21.992 58.2677 20.2133 57.6918C18.4926 57.1346 16.1696 56.7137 14.7346 55.5657C13.971 54.9548 13.2811 54.2488 12.2815 54.0822C12.0697 54.0469 11.7378 54.0452 11.6857 53.8369C11.5136 53.1483 13.1166 53.8106 13.8118 53.9537C15.8349 54.37 17.8107 54.9832 19.8161 55.4723C22.2975 56.0775 24.1486 57.1359 26.3811 58.1824C26.6396 58.3035 29.6118 60.0002 28.7641 60.1916C28.1313 60.3345 21.8789 59.267 21.9772 58.8249C21.9859 58.7857 21.9967 58.7295 22.0356 58.7197C22.6247 58.5725 24.6548 58.5575 24.7457 58.5562C30.3999 58.4746 36.0588 58.6416 41.7073 58.8833C43.6235 58.9653 45.5378 59.0742 47.4546 59.1403C47.7069 59.149 47.9242 59.2616 47.478 59.3038C43.8571 59.6463 40.1419 58.6006 36.544 58.3459C35.2867 58.2569 34.0193 58.2992 32.7592 58.2992C32.7529 58.2992 32.2562 58.2971 32.3153 58.2058C32.7983 57.4594 35.9413 57.8741 36.3571 57.902C40.9549 58.2107 45.477 59.1211 50.0479 59.6543C52.7374 59.968 55.4447 59.9358 58.1315 60.2383C65.2951 61.0451 72.9798 62.0942 79.5788 65.1212C81.3766 65.9459 82.6606 65.8688 84.6136 65.8688C85.6223 65.8688 87.5238 66.1222 86.3891 64.6423C86.1104 64.2787 85.7249 64.0135 85.4429 63.661C85.1733 63.324 84.0389 63.7242 83.7374 63.7662C82.1555 63.9863 80.5644 63.9764 78.9714 63.9764C78.5989 63.9764 75.499 64.297 76.2613 63.2171C76.9281 62.2725 78.7143 62.1216 79.7657 62.084C80.6518 62.0524 79.9285 62.3939 79.462 62.5513C74.8055 64.1222 69.5584 63.7662 64.6965 63.7662C59.2167 63.7662 53.7321 63.5649 48.3891 62.2826C46.6562 61.8667 44.9112 61.5561 43.1792 61.1261C41.1332 60.6183 39.0576 59.9142 36.9646 59.6543C35.3366 59.4521 30.4295 59.1403 32.07 59.1403C36.3876 59.1403 40.8795 60.6373 45.0949 61.4532C48.063 62.0277 51.08 62.7851 54.1131 62.9251C55.0819 62.9698 55.9927 63.1834 56.975 63.112C58.8512 62.9756 60.6053 62.5046 62.5121 62.5046C62.5796 62.5046 66.9394 62.1235 66.4721 63.3456C66.2582 63.905 63.9537 63.8226 63.8905 63.8246C60.4979 63.928 57.1024 63.6281 53.7159 63.4741C51.6747 63.3813 49.6372 63.3456 47.5948 63.3456C46.9395 63.3456 46.3684 63.3365 47.548 63.3456C51.0483 63.3728 54.4923 63.661 57.8512 64.7007C61.867 65.9437 65.9552 66.7467 70.1285 67.329C73.2483 67.7644 76.4793 67.551 79.6255 67.551C80.2897 67.551 80.9976 67.4776 81.6581 67.551C81.9675 67.5853 81.8668 67.9715 82.2889 67.9715" stroke="#5D1718" stroke-width="3" stroke-linecap="round"/>
<path d="M80.1863 66.0791C81.5313 65.6948 85.2558 63.7263 84.0412 64.4203C83.3554 64.8122 82.8585 64.8175 82.0787 64.8175" stroke="#5D1718" stroke-width="3" stroke-linecap="round"/>
<path d="M86.9148 59.5608C86.9148 58.9318 88.7537 58.0511 89.3095 57.7852C89.9056 57.5002 90.1707 56.975 90.6996 56.7105C92.0222 56.0492 93.2787 53.6669 94.0172 52.4585C94.7231 51.3034 95.5801 50.4877 96.6339 49.6315C98.4811 48.1307 99.9775 46.2826 101.961 44.9355C102.423 44.6218 102.883 44.1962 103.433 44.0477C103.862 43.9316 104.257 44.0601 104.624 43.744C106.263 42.3308 108.052 41.2714 109.53 39.6321C110.283 38.7971 111.242 37.838 112.147 37.2725" stroke="#F9F8E2" stroke-width="3" stroke-linecap="round"/>
<path d="M82.0787 53.6733C82.8951 53.9649 85.4688 54.3041 84.6019 54.3041" stroke="#F9F8E2" stroke-width="3" stroke-linecap="round"/>
<path d="M79.976 53.2528C81.1128 53.2528 82.4557 53.6099 83.5506 53.8836" stroke="#5D1718" stroke-width="3" stroke-linecap="round"/>
<path d="M83.5506 53.8836C84.1589 52.7006 84.8957 50.7205 86.2373 50.1455C86.9841 49.8255 86.064 50.3239 85.8168 50.5193C85.2342 50.98 84.48 51.5706 83.7608 51.5706" stroke="#5D1718" stroke-width="3" stroke-linecap="round"/>
<path d="M85.2327 52.8322C83.7185 52.8322 82.7176 52.9293 81.8684 51.5706" stroke="#5D1718" stroke-width="3" stroke-linecap="round"/>
<path d="M29.9323 43.1599C34.0498 44.5324 37.7505 46.8435 41.9876 47.8793C43.2214 48.1809 44.4763 48.0974 45.7024 48.3699C46.2782 48.4979 46.8995 48.6269 47.4896 48.6269C48.218 48.6269 48.6489 48.6385 47.6415 48.4633C46.5126 48.267 45.1884 48.5391 44.1137 48.0662C40.9931 46.6931 38.7143 44.0425 35.0955 43.6038C33.5314 43.4142 31.9137 43.765 30.3528 43.5337C29.4454 43.3993 28.5528 43.2494 27.6427 43.1482C26.9045 43.0662 26.2315 42.5443 25.5167 42.3656C24.9404 42.2215 24.3146 42.376 23.7294 42.3072C22.8973 42.2093 22.0693 41.7508 21.2646 41.5245C19.4821 41.0232 17.7105 40.6597 15.8444 40.4265" stroke="#5D1718" stroke-width="3" stroke-linecap="round"/>
<path d="M60.2108 47.3653C63.3232 47.5539 66.6939 47.8546 69.6846 48.7204C71.5955 49.2735 73.6158 49.8248 75.5604 50.2623C76.313 50.4316 78.7907 50.7053 79.4503 50.1922C80.0699 49.7103 80.8564 49.2577 81.6581 49.2577" stroke="#5D1718" stroke-width="3" stroke-linecap="round"/>
<path d="M81.6581 47.3653C81.4624 48.3439 79.5442 48.6297 78.7144 48.8372" stroke="#5D1718" stroke-width="3" stroke-linecap="round"/>
<path d="M84.3916 47.155C85.0468 46.3361 87.6714 45.7874 88.7138 45.6832C89.2282 45.6317 89.513 45.2626 90.0689 45.2626" stroke="#5D1718" stroke-width="3" stroke-linecap="round"/>
<path d="M70.0934 61.6635H75.1398" stroke="#5D1718" stroke-width="3" stroke-linecap="round"/>
<path d="M32.6658 58.089C29.9746 57.6749 27.5011 55.8982 24.7925 55.7877C23.0973 55.7185 21.2502 56.0225 19.6059 55.5657C17.8961 55.0908 16.3396 55.4031 14.6295 54.7714C13.204 54.2448 11.686 53.8157 10.2256 53.393C9.71638 53.2456 9.17132 53.3273 8.6953 53.0893C8.25445 52.8688 8.64726 52.2448 8.36822 51.8861C7.96203 51.3638 7.39283 51.4504 7.11829 50.8464C6.67637 49.8742 10.3194 51.6196 10.3541 51.6407C11.8146 52.5317 13.3838 53.1544 14.7931 54.0939" stroke="#5D1718" stroke-width="3" stroke-linecap="round"/>
<path d="M74.9706 15.1198H75.0557" stroke="#431B1B" stroke-linecap="square"/>
<path d="M67.3134 18.6055C67.3224 18.6865 67.3605 18.7485 67.4251 18.7916" stroke="#431B1B" stroke-linecap="square"/>
<path d="M70.2175 13.6536C70.2175 13.5772 70.2515 13.4286 70.1803 13.393" stroke="#431B1B" stroke-linecap="square"/>
<path d="M73.9779 22.8872C73.8583 22.7077 73.4671 22.6846 73.3822 22.5148" stroke="#431B1B" stroke-linecap="square"/>
<path d="M74.8715 19.015C74.7475 18.953 74.6229 18.9441 74.5364 18.8289" stroke="#431B1B" stroke-linecap="square"/>
<path d="M73.5312 18.6799C73.4331 18.6379 73.2333 18.6564 73.2333 18.531" stroke="#431B1B" stroke-linecap="square"/>
<path d="M72.8982 19.2384C72.7198 19.2469 72.556 19.3129 72.377 19.3129" stroke="#431B1B" stroke-linecap="square"/>
<path d="M72.377 20.0947C72.0941 20.1553 71.8089 20.1692 71.5207 20.1692" stroke="#431B1B" stroke-linecap="square"/>
<path d="M70.4409 20.3181C70.3032 20.3116 70.1697 20.2809 70.0314 20.2809" stroke="#431B1B" stroke-linecap="square"/>
<path d="M70.3292 21.4723C70.1826 21.4646 69.7915 21.4558 69.6963 21.3606" stroke="#431B1B" stroke-linecap="square"/>
<path d="M66.5365 23.9236C66.1654 23.6932 65.7626 23.4566 65.3561 23.294" stroke="#431B1B" stroke-linecap="square"/>
<path d="M64.9626 23.1366C64.8678 23.1247 64.8398 23.0579 64.7265 23.0579" stroke="#431B1B" stroke-linecap="square"/>
<path d="M64.9626 24.3957C65.7382 24.5896 66.5284 24.7457 67.2448 25.104" stroke="#431B1B" stroke-linecap="square"/>
<path d="M84.1085 18.2951C83.9525 18.2778 83.7946 18.1905 83.6471 18.1414" stroke="#431B1B" stroke-linecap="square"/>
<path d="M82.4169 21.3708V21.6784" stroke="#431B1B" stroke-linecap="square"/>
<path d="M63.963 18.1414C64.0819 18.2602 64.4056 18.4396 64.1168 18.2951" stroke="#431B1B" stroke-linecap="square"/>
<path d="M61.0411 18.6027C60.7503 18.6027 60.2502 18.7124 60.1184 18.4489" stroke="#431B1B" stroke-linecap="square"/>
<path d="M61.6563 21.0632C61.3035 21.0632 61.0799 21.0444 60.8874 20.7557" stroke="#431B1B" stroke-linecap="square"/>
<path d="M63.1941 24.754V25.5229" stroke="#431B1B" stroke-linecap="square"/>
<path d="M70.7294 25.5229C70.6204 25.5093 70.5173 25.4169 70.4218 25.3691" stroke="#431B1B" stroke-linecap="square"/>
<path d="M66.0522 21.1033C66.2588 21.1653 66.2127 21.4148 66.4414 21.4148" stroke="#431B1B" stroke-linecap="square"/>
<path d="M57.4103 23.9061C57.6303 24.0894 57.9213 24.2062 58.1888 24.2953" stroke="#431B1B" stroke-linecap="square"/>
<path d="M57.1767 19.9355C57.0686 19.9355 57.0312 19.9163 56.9431 19.8577" stroke="#431B1B" stroke-linecap="square"/>
<path d="M55.931 21.4926C55.931 21.7093 55.8438 22.2739 55.7753 21.7262" stroke="#431B1B" stroke-linecap="square"/>
<path d="M58.1888 26.3974C58.2148 26.6315 58.4144 26.8056 58.5002 27.0202" stroke="#431B1B" stroke-linecap="square"/>
<path d="M60.758 27.4095V28.1881" stroke="#431B1B" stroke-linecap="square"/>
<path d="M51.5712 27.2538H51.7269" stroke="#431B1B" stroke-linecap="square"/>
<path d="M52.5833 23.9061C53.0236 23.9661 53.427 24.451 53.829 24.451" stroke="#431B1B" stroke-linecap="square"/>
<path d="M55.0746 26.4753C55.086 26.8147 55.1525 27.1473 55.1525 27.4874" stroke="#431B1B" stroke-linecap="square"/>
<path d="M56.0089 28.8888C56.4452 29.0052 56.8422 29.3284 57.2546 29.5116" stroke="#431B1B" stroke-linecap="square"/>
<path d="M67.5314 31.3023C67.5314 31.1856 67.5556 31.1198 67.4535 31.0687" stroke="#431B1B" stroke-linecap="square"/>
<path d="M65.7407 28.9667C65.6596 28.8754 65.6854 28.7833 65.585 28.7331" stroke="#431B1B" stroke-linecap="square"/>
<path d="M64.0279 29.9787C63.4215 29.9787 63.2481 30.029 62.8601 29.5116" stroke="#431B1B" stroke-linecap="square"/>
<path d="M73.2148 28.1881C73.4027 28.2553 73.5783 28.3392 73.7597 28.4217" stroke="#431B1B" stroke-linecap="square"/>
<path d="M44.4018 23.587C44.3557 23.4793 44.2702 23.3911 44.2303 23.2815" stroke="#431B1B" stroke-linecap="square"/>
<path d="M43.6489 23.4249C43.5408 23.2629 43.467 23.0908 43.4028 22.9143" stroke="#431B1B" stroke-linecap="square"/>
<path d="M43.0515 22.2805C43.0257 22.195 43.0187 22.1077 42.9879 22.0229" stroke="#431B1B" stroke-linecap="square"/>
<path d="M42.1683 22.4239C42.1414 22.3327 42.0608 22.0916 42.1104 22.0159" stroke="#431B1B" stroke-linecap="square"/>
<path d="M39.5006 20.5514C39.5892 20.282 39.6754 19.992 39.7058 19.7133" stroke="#431B1B" stroke-linecap="square"/>
<path d="M39.7352 19.4435C39.7229 19.3833 39.7664 19.3539 39.7411 19.2845" stroke="#431B1B" stroke-linecap="square"/>
<path d="M38.7989 19.6744C38.8275 20.1848 38.8874 20.6972 38.7807 21.2016" stroke="#431B1B" stroke-linecap="square"/>
<path d="M47.6006 30.2772C47.5787 30.1785 47.6085 30.0659 47.6122 29.9666" stroke="#431B1B" stroke-linecap="square"/>
<path d="M44.9366 29.8057L44.7072 29.8623" stroke="#431B1B" stroke-linecap="square"/>
<path d="M43.227 17.9153C43.1651 18.0099 43.1039 18.241 43.1469 18.0377" stroke="#431B1B" stroke-linecap="square"/>
<path d="M42.233 16.2111C42.1682 16.0331 41.9752 15.747 42.1418 15.618" stroke="#431B1B" stroke-linecap="square"/>
<path d="M40.5404 17.0389C40.4618 16.823 40.426 16.6826 40.5978 16.5118" stroke="#431B1B" stroke-linecap="square"/>
<path d="M38.1385 18.6574L37.5667 18.7984" stroke="#431B1B" stroke-linecap="square"/>
<path d="M39.2454 23.4118C39.2312 23.3426 39.277 23.2625 39.2912 23.1953" stroke="#431B1B" stroke-linecap="square"/>
<path d="M41.4899 19.7376C41.4898 19.8755 41.2941 19.893 41.345 20.0331" stroke="#431B1B" stroke-linecap="square"/>
<path d="M37.4805 14.9609C37.3932 15.1292 37.3712 15.3288 37.3645 15.5089" stroke="#431B1B" stroke-linecap="square"/>
<path d="M40.381 14.0896C40.357 14.0234 40.3629 13.997 40.3869 13.9323" stroke="#431B1B" stroke-linecap="square"/>
<path d="M38.9457 13.6125C38.7845 13.6523 38.3452 13.7024 38.7373 13.5601" stroke="#431B1B" stroke-linecap="square"/>
<path d="M35.8014 15.8945C35.6331 15.9533 35.5481 16.1074 35.4076 16.1994" stroke="#431B1B" stroke-linecap="square"/>
<path d="M35.6211 17.653L35.0422 17.7958" stroke="#431B1B" stroke-linecap="square"/>
<path d="M33.6903 12L33.725 12.0953" stroke="#431B1B" stroke-linecap="square"/>
<path d="M36.4052 12.0056C36.4586 12.2862 36.1879 12.6221 36.2774 12.8682" stroke="#431B1B" stroke-linecap="square"/>
<path d="M35.0497 14.0021C34.7998 14.0713 34.5673 14.1731 34.3144 14.2354" stroke="#431B1B" stroke-linecap="square"/>
<path d="M33.4631 15.0168C33.4738 15.3053 33.3219 15.6076 33.2775 15.8937" stroke="#431B1B" stroke-linecap="square"/>
<path d="M34.2354 22.5139C34.3221 22.4925 34.3765 22.4953 34.3917 22.4234" stroke="#431B1B" stroke-linecap="square"/>
<path d="M35.5732 20.9892C35.623 20.9228 35.6973 20.9217 35.7122 20.8511" stroke="#431B1B" stroke-linecap="square"/>
<path d="M34.4391 20.1262C34.304 19.7549 34.228 19.658 34.5263 19.3256" stroke="#431B1B" stroke-linecap="square"/>
<path d="M37.8172 25.4222C37.8092 25.5497 37.7858 25.6725 37.7649 25.7987" stroke="#431B1B" stroke-linecap="square"/>
<path d="M85.9634 32.3469C86.1095 32.1875 86.1799 31.9722 86.3358 31.8224" stroke="#431B1B" stroke-linecap="square"/>
<path d="M85.4793 30.8957C85.6592 30.5871 85.8925 30.332 86.1435 30.0908" stroke="#431B1B" stroke-linecap="square"/>
<path d="M86.9206 29.0108C87.0478 28.9033 87.1976 28.828 87.3181 28.7122" stroke="#431B1B" stroke-linecap="square"/>
<path d="M85.7534 27.5494C85.8895 27.4358 86.2397 27.1189 86.427 27.1521" stroke="#431B1B" stroke-linecap="square"/>
<path d="M86.3709 21.4702C86.9464 21.4327 87.5564 21.3761 88.0886 21.2286" stroke="#431B1B" stroke-linecap="square"/>
<path d="M88.6037 21.086C88.6992 21.0207 88.7968 21.0765 88.8955 20.9818" stroke="#431B1B" stroke-linecap="square"/>
<path d="M87.2243 19.5936C86.3365 20.0128 85.4773 20.4889 84.4609 20.6639" stroke="#431B1B" stroke-linecap="square"/>
<path d="M77.2344 42.8455C77.3892 42.7355 77.6223 42.7069 77.8046 42.6417" stroke="#431B1B" stroke-linecap="square"/>
<path d="M75.338 37.7845L75 37.4188" stroke="#431B1B" stroke-linecap="square"/>
<path d="M94.9466 26.1702C94.7128 26.1287 94.2344 26.1871 94.6442 26.1166" stroke="#431B1B" stroke-linecap="square"/>
<path d="M96.9857 23.1783C97.2389 22.9349 97.5543 22.3864 97.9577 22.5884" stroke="#431B1B" stroke-linecap="square"/>
<path d="M93.7545 20.7767C94.0617 20.4815 94.2771 20.3166 94.7611 20.4978" stroke="#431B1B" stroke-linecap="square"/>
<path d="M88.3719 17.689L87.5295 16.7777" stroke="#431B1B" stroke-linecap="square"/>
<path d="M80.9673 23.0832C81.0772 23.0081 81.2681 23.0314 81.4036 23.0081" stroke="#431B1B" stroke-linecap="square"/>
<path d="M89.8824 24.4077C89.6345 24.5071 89.4014 24.1729 89.2022 24.3643" stroke="#431B1B" stroke-linecap="square"/>
<path d="M94.3376 13.8542C93.9452 13.821 93.5638 13.9261 93.2331 14.0443" stroke="#431B1B" stroke-linecap="square"/>
<path d="M98.891 18.3649C98.9851 18.2744 99.0387 18.2658 99.1797 18.2617" stroke="#431B1B" stroke-linecap="square"/>
<path d="M98.2699 15.477C98.0325 15.2201 97.4899 14.4779 98.1496 15.0698" stroke="#431B1B" stroke-linecap="square"/>
<path d="M90.9302 11.5527C90.6512 11.2971 90.2866 11.2577 89.9767 11.0751" stroke="#431B1B" stroke-linecap="square"/>
<path d="M87.5841 12.5029L86.7311 11.5801" stroke="#431B1B" stroke-linecap="square"/>
<path d="M95.7551 5L95.6202 5.12955" stroke="#431B1B" stroke-linecap="square"/>
<path d="M98.5413 9.81494C98.0921 10.1122 97.2095 9.87499 96.8595 10.2114" stroke="#431B1B" stroke-linecap="square"/>
<path d="M93.557 8.85449C93.1753 8.46161 92.7529 8.12307 92.3804 7.72002" stroke="#431B1B" stroke-linecap="square"/>
<path d="M90.0993 6.77563C89.5919 7.00285 88.8921 6.95194 88.3322 7.07978" stroke="#431B1B" stroke-linecap="square"/>
<path d="M77.4208 13.557C77.5486 13.6953 77.5997 13.7936 77.7445 13.7687" stroke="#431B1B" stroke-linecap="square"/>
<path d="M81.5389 14.8269C81.7096 14.8672 81.788 14.9979 81.9304 14.9734" stroke="#431B1B" stroke-linecap="square"/>
<path d="M81.9218 12.1941C82.4499 11.6866 82.5458 11.482 83.4505 11.7705" stroke="#431B1B" stroke-linecap="square"/>
<path d="M75.8831 22.0038C75.6458 22.0816 75.401 22.129 75.1526 22.183" stroke="#431B1B" stroke-linecap="square"/>
<path d="M14.5344 26.8181C14.7456 26.8645 14.9671 26.8174 15.1749 26.8771" stroke="#431B1B" stroke-linecap="square"/>
<path d="M15.5468 25.6713C15.904 25.6721 16.2417 25.7458 16.5762 25.8419" stroke="#431B1B" stroke-linecap="square"/>
<path d="M17.9005 25.9723C18.0572 26.0283 18.1975 26.1201 18.3582 26.1663" stroke="#431B1B" stroke-linecap="square"/>
<path d="M18.5789 24.2293C18.7454 24.2901 19.1953 24.434 19.2605 24.6127" stroke="#431B1B" stroke-linecap="square"/>
<path d="M24.1472 21.7132C24.4685 22.1923 24.8235 22.6915 25.2181 23.0778" stroke="#431B1B" stroke-linecap="square"/>
<path d="M25.5999 23.4518C25.7043 23.5017 25.7051 23.6142 25.8365 23.6519" stroke="#431B1B" stroke-linecap="square"/>
<path d="M26.1987 21.5099C25.3907 20.9522 24.5477 20.4479 23.8864 19.6565" stroke="#431B1B" stroke-linecap="square"/>
<path d="M1.07313 24.5351C1.24594 24.6139 1.3877 24.8011 1.53552 24.9261" stroke="#431B1B" stroke-linecap="square"/>
<path d="M4.49945 20.3555L4.64619 19.8796" stroke="#431B1B" stroke-linecap="square"/>
<path d="M24.3846 31.4895C24.3032 31.2665 24.0127 30.882 24.2793 31.201" stroke="#431B1B" stroke-linecap="square"/>
<path d="M27.9958 31.7522C28.3333 31.8492 28.9661 31.8467 28.9937 32.2971" stroke="#431B1B" stroke-linecap="square"/>
<path d="M28.4519 27.7521C28.8614 27.8698 29.1121 27.9733 29.1982 28.4829" stroke="#431B1B" stroke-linecap="square"/>
<path d="M106.616 37.9788C107.144 37.4713 107.24 37.2667 108.145 37.5552" stroke="#431B1B" stroke-linecap="square"/>
<path d="M53.1463 53.5369C53.5557 53.6545 53.8064 53.7581 53.8925 54.2676" stroke="#431B1B" stroke-linecap="square"/>
<path d="M28.4221 21.5469L28.7877 20.3609" stroke="#431B1B" stroke-linecap="square"/>
<path d="M20.0408 17.8484C20.1609 17.9057 20.2365 18.0826 20.3247 18.1881" stroke="#431B1B" stroke-linecap="square"/>
<path d="M23.3683 26.2246C23.1578 26.0601 23.33 25.6908 23.0645 25.6145" stroke="#431B1B" stroke-linecap="square"/>
<path d="M34.7325 24.7832C34.5644 24.4271 34.282 24.1499 34.0139 23.9232" stroke="#431B1B" stroke-linecap="square"/>
<path d="M33.1154 30.9851C33.2409 31.0212 33.2752 31.0633 33.3495 31.1831" stroke="#431B1B" stroke-linecap="square"/>
<path d="M35.3019 28.9989C35.4049 28.6647 35.7747 27.8229 35.5937 28.6906" stroke="#431B1B" stroke-linecap="square"/>
<path d="M35.0137 20.681C35.0948 20.3114 34.946 19.9763 34.9484 19.6166" stroke="#431B1B" stroke-linecap="square"/>
<path d="M32.5128 18.2633L32.883 17.0625" stroke="#431B1B" stroke-linecap="square"/>
<path d="M43.1027 21.5667L42.923 21.5151" stroke="#431B1B" stroke-linecap="square"/>
<path d="M40.3358 26.3928C39.8532 26.1533 39.6156 25.2709 39.149 25.1368" stroke="#431B1B" stroke-linecap="square"/>
<path d="M38.6657 21.5994C38.814 21.072 38.8949 20.5368 39.0566 20.0124" stroke="#431B1B" stroke-linecap="square"/>
<path d="M38.729 17.5654C38.2778 17.2404 37.9708 16.6096 37.5792 16.1894" stroke="#431B1B" stroke-linecap="square"/>
<path d="M26.5016 10.0008C26.4461 10.1807 26.3867 10.2743 26.4809 10.387" stroke="#431B1B" stroke-linecap="square"/>
<path d="M27.4693 14.2002C27.5201 14.3681 27.4464 14.5015 27.539 14.6124" stroke="#431B1B" stroke-linecap="square"/>
<path d="M29.9389 13.2104C30.6429 13.4126 30.868 13.3929 31.0723 14.3203" stroke="#431B1B" stroke-linecap="square"/>
<path d="M18.4234 12.9089C18.2371 12.7427 18.0732 12.5547 17.9019 12.367" stroke="#431B1B" stroke-linecap="square"/>
<path d="M64.1143 14.6131C64.0294 14.5119 63.8589 14.4333 63.7873 14.3297" stroke="#431B1B" stroke-linecap="square"/>
<path d="M62.5421 14.5221C62.3324 14.3733 62.1963 14.2115 62.0811 14.0446" stroke="#431B1B" stroke-linecap="square"/>
<path d="M61.4123 13.4561C61.3676 13.3748 61.3631 13.2899 61.3078 13.2098" stroke="#431B1B" stroke-linecap="square"/>
<path d="M59.5294 13.6756C59.483 13.5888 59.3406 13.3602 59.4542 13.2816" stroke="#431B1B" stroke-linecap="square"/>
<path d="M54.1089 12.0831C54.3275 11.8115 54.5433 11.52 54.6397 11.2446" stroke="#431B1B" stroke-linecap="square"/>
<path d="M54.7332 10.9781C54.7141 10.9203 54.8094 10.8876 54.7641 10.822" stroke="#431B1B" stroke-linecap="square"/>
<path d="M52.7278 11.288C52.7291 11.7848 52.7963 12.2807 52.5121 12.7837" stroke="#431B1B" stroke-linecap="square"/>
<path d="M70.0983 20.8714C70.0635 20.7769 70.1394 20.664 70.1588 20.5665" stroke="#431B1B" stroke-linecap="square"/>
<path d="M64.5234 20.6491L64.0313 20.7252" stroke="#431B1B" stroke-linecap="square"/>
<path d="M62.2895 9.16974C62.1477 9.26783 61.9915 9.49942 62.106 9.29663" stroke="#431B1B" stroke-linecap="square"/>
<path d="M60.3865 7.59149C60.2703 7.42313 59.8956 7.16056 60.2626 7.01941" stroke="#431B1B" stroke-linecap="square"/>
<path d="M56.7136 8.55331C56.5726 8.34907 56.5131 8.21495 56.8961 8.03241" stroke="#431B1B" stroke-linecap="square"/>
<path d="M51.45 10.3522L50.2254 10.5415" stroke="#431B1B" stroke-linecap="square"/>
<path d="M53.2379 14.9044C53.216 14.8379 53.322 14.7555 53.3598 14.6885" stroke="#431B1B" stroke-linecap="square"/>
<path d="M58.4072 11.1083C58.391 11.2433 57.9753 11.2779 58.0668 11.4104" stroke="#431B1B" stroke-linecap="square"/>
<path d="M50.4883 6.7948C50.2843 6.96731 50.2147 7.16458 50.1796 7.34139" stroke="#431B1B" stroke-linecap="square"/>
<path d="M56.7189 5.68217C56.6757 5.61957 56.6913 5.59317 56.7496 5.52777" stroke="#431B1B" stroke-linecap="square"/>
<path d="M53.741 5.34424C53.3958 5.39758 52.4617 5.48606 53.3067 5.31158" stroke="#431B1B" stroke-linecap="square"/>
<path d="M46.8315 7.85883C46.4692 7.9315 46.2716 8.0899 45.964 8.19245" stroke="#431B1B" stroke-linecap="square"/>
<path d="M46.2466 9.59546L45.0066 9.78711" stroke="#431B1B" stroke-linecap="square"/>
<path d="M42.8219 4.23816L42.8838 4.3278" stroke="#431B1B" stroke-linecap="square"/>
<path d="M48.5586 4C48.639 4.2697 48.0279 4.62264 48.1886 4.85538" stroke="#431B1B" stroke-linecap="square"/>
<path d="M45.4625 6.07495C44.9264 6.16506 44.4232 6.28546 43.8816 6.36917" stroke="#431B1B" stroke-linecap="square"/>
<path d="M41.992 7.20996C41.9811 7.49124 41.625 7.80063 41.498 8.08451" stroke="#431B1B" stroke-linecap="square"/>
<path d="M42.7544 14.4754C42.9402 14.4467 43.0548 14.4445 43.0953 14.3729" stroke="#431B1B" stroke-linecap="square"/>
<path d="M45.7585 12.8638C45.8715 12.7943 46.0285 12.7866 46.0683 12.7161" stroke="#431B1B" stroke-linecap="square"/>
<path d="M43.4619 12.1212C43.2194 11.77 43.0701 11.682 43.739 11.33" stroke="#431B1B" stroke-linecap="square"/>
<path d="M49.9865 16.9994C49.9547 17.1248 49.8911 17.2471 49.8323 17.3724" stroke="#431B1B" stroke-linecap="square"/>
<path d="M79.1143 14.6131C79.0294 14.5119 78.8589 14.4333 78.7873 14.3297" stroke="#431B1B" stroke-linecap="square"/>
<path d="M77.5421 14.5221C77.3324 14.3733 77.1963 14.2115 77.0811 14.0446" stroke="#431B1B" stroke-linecap="square"/>
<path d="M76.4123 13.4561C76.3676 13.3748 76.3631 13.2899 76.3078 13.2098" stroke="#431B1B" stroke-linecap="square"/>
<path d="M74.5294 13.6756C74.483 13.5888 74.3406 13.3602 74.4542 13.2816" stroke="#431B1B" stroke-linecap="square"/>
<path d="M69.1089 12.0831C69.3275 11.8115 69.5433 11.52 69.6397 11.2446" stroke="#431B1B" stroke-linecap="square"/>
<path d="M69.7332 10.9781C69.7141 10.9203 69.8094 10.8876 69.7641 10.822" stroke="#431B1B" stroke-linecap="square"/>
<path d="M67.7278 11.288C67.7291 11.7848 67.7963 12.2807 67.5121 12.7837" stroke="#431B1B" stroke-linecap="square"/>
<path d="M85.0983 20.8714C85.0635 20.7769 85.1394 20.664 85.1588 20.5665" stroke="#431B1B" stroke-linecap="square"/>
<path d="M79.5234 20.6491L79.0313 20.7252" stroke="#431B1B" stroke-linecap="square"/>
<path d="M77.2895 9.16974C77.1477 9.26783 76.9915 9.49942 77.106 9.29663" stroke="#431B1B" stroke-linecap="square"/>
<path d="M75.3865 7.59149C75.2703 7.42313 74.8956 7.16056 75.2626 7.01941" stroke="#431B1B" stroke-linecap="square"/>
<path d="M71.7136 8.55331C71.5726 8.34907 71.5131 8.21495 71.8961 8.03241" stroke="#431B1B" stroke-linecap="square"/>
<path d="M66.45 10.3522L65.2254 10.5415" stroke="#431B1B" stroke-linecap="square"/>
<path d="M68.2379 14.9044C68.216 14.8379 68.322 14.7555 68.3598 14.6885" stroke="#431B1B" stroke-linecap="square"/>
<path d="M73.4072 11.1083C73.391 11.2433 72.9753 11.2779 73.0668 11.4104" stroke="#431B1B" stroke-linecap="square"/>
<path d="M65.4883 6.7948C65.2843 6.96731 65.2147 7.16458 65.1796 7.34139" stroke="#431B1B" stroke-linecap="square"/>
<path d="M71.7189 5.68217C71.6757 5.61957 71.6913 5.59317 71.7496 5.52777" stroke="#431B1B" stroke-linecap="square"/>
<path d="M68.741 5.34424C68.3958 5.39758 67.4617 5.48606 68.3067 5.31158" stroke="#431B1B" stroke-linecap="square"/>
<path d="M61.8315 7.85883C61.4692 7.9315 61.2716 8.0899 60.964 8.19245" stroke="#431B1B" stroke-linecap="square"/>
<path d="M61.2466 9.59546L60.0066 9.78711" stroke="#431B1B" stroke-linecap="square"/>
<path d="M57.8219 4.23816L57.8838 4.3278" stroke="#431B1B" stroke-linecap="square"/>
<path d="M63.5586 4C63.639 4.2697 63.0279 4.62264 63.1886 4.85538" stroke="#431B1B" stroke-linecap="square"/>
<path d="M60.4625 6.07495C59.9264 6.16506 59.4232 6.28546 58.8816 6.36917" stroke="#431B1B" stroke-linecap="square"/>
<path d="M56.992 7.20996C56.9811 7.49124 56.625 7.80063 56.498 8.08451" stroke="#431B1B" stroke-linecap="square"/>
<path d="M57.7544 14.4754C57.9402 14.4467 58.0548 14.4445 58.0953 14.3729" stroke="#431B1B" stroke-linecap="square"/>
<path d="M60.7585 12.8638C60.8715 12.7943 61.0285 12.7866 61.0683 12.7161" stroke="#431B1B" stroke-linecap="square"/>
<path d="M58.4619 12.1212C58.2194 11.77 58.0701 11.682 58.739 11.33" stroke="#431B1B" stroke-linecap="square"/>
<path d="M64.9865 16.9994C64.9547 17.1248 64.8911 17.2471 64.8323 17.3724" stroke="#431B1B" stroke-linecap="square"/>
<path d="M23.8024 41.5251C23.7309 41.4863 23.6098 41.4713 23.5462 41.4293" stroke="#431B1B" stroke-linecap="square"/>
<path d="M22.8 41.7079C22.6417 41.6631 22.5272 41.6011 22.4248 41.5334" stroke="#431B1B" stroke-linecap="square"/>
<path d="M21.8993 41.333C21.8566 41.2983 21.8385 41.2561 21.7894 41.2236" stroke="#431B1B" stroke-linecap="square"/>
<path d="M20.7581 41.7181C20.7134 41.6809 20.5829 41.586 20.6399 41.5297" stroke="#431B1B" stroke-linecap="square"/>
<path d="M17.0717 41.7013C17.1598 41.532 17.2425 41.3532 17.2534 41.1998" stroke="#431B1B" stroke-linecap="square"/>
<path d="M17.2639 41.0513C17.2416 41.0248 17.2954 40.9944 17.2552 40.9678" stroke="#431B1B" stroke-linecap="square"/>
<path d="M16.0623 41.5C16.1527 41.7512 16.2843 41.9923 16.1969 42.2882" stroke="#431B1B" stroke-linecap="square"/>
<path d="M28.6837 43.8208C28.6449 43.778 28.6721 43.7098 28.6667 43.6577" stroke="#431B1B" stroke-linecap="square"/>
<path d="M25.1478 44.5197L24.8529 44.6298" stroke="#431B1B" stroke-linecap="square"/>
<path d="M21.6762 39.0365C21.6049 39.1068 21.5488 39.2467 21.584 39.1274" stroke="#431B1B" stroke-linecap="square"/>
<path d="M20.1982 38.5149C20.0949 38.4466 19.8126 38.3683 20.0173 38.2435" stroke="#431B1B" stroke-linecap="square"/>
<path d="M18.0684 39.5361C17.9431 39.4533 17.8816 39.3941 18.0889 39.246" stroke="#431B1B" stroke-linecap="square"/>
<path d="M15.0922 41.2125L14.3583 41.4865" stroke="#431B1B" stroke-linecap="square"/>
<path d="M17.0345 43.2556C17.0088 43.2251 17.0604 43.168 17.072 43.1285" stroke="#431B1B" stroke-linecap="square"/>
<path d="M19.5913 40.5825C19.6056 40.6531 19.3511 40.7311 19.4324 40.7848" stroke="#431B1B" stroke-linecap="square"/>
<path d="M13.8474 39.5524C13.7506 39.6694 13.7425 39.7794 13.7524 39.8739" stroke="#431B1B" stroke-linecap="square"/>
<path d="M17.5538 38.0826C17.5154 38.0572 17.5204 38.0416 17.5452 38" stroke="#431B1B" stroke-linecap="square"/>
<path d="M15.6255 38.345C15.4187 38.4222 14.8488 38.603 15.3473 38.3917" stroke="#431B1B" stroke-linecap="square"/>
<path d="M11.7463 40.623C11.5321 40.7126 11.4368 40.8215 11.2625 40.9181" stroke="#431B1B" stroke-linecap="square"/>
<path d="M11.6927 41.5869L10.9497 41.8644" stroke="#431B1B" stroke-linecap="square"/>
<path d="M8.57874 39.3746L8.63372 39.411" stroke="#431B1B" stroke-linecap="square"/>
<path d="M12.1332 38.4191C12.2322 38.5439 11.9127 38.8114 12.0554 38.9058" stroke="#431B1B" stroke-linecap="square"/>
<path d="M10.566 39.9197C10.246 40.0433 9.95224 40.1775 9.62771 40.2986" stroke="#431B1B" stroke-linecap="square"/>
<path d="M8.59442 40.9991C8.63833 41.143 8.47086 41.3514 8.44239 41.5135" stroke="#431B1B" stroke-linecap="square"/>
<path d="M10.3831 44.5643C10.4944 44.5228 10.5659 44.505 10.5784 44.4628" stroke="#431B1B" stroke-linecap="square"/>
<path d="M11.9761 43.3117C12.0344 43.2601 12.1315 43.2333 12.1437 43.1919" stroke="#431B1B" stroke-linecap="square"/>
<path d="M10.402 43.2702C10.1867 43.1278 10.0771 43.105 10.4331 42.8295" stroke="#431B1B" stroke-linecap="square"/>
<path d="M15.3735 44.7888C15.3762 44.8569 15.3584 44.928 15.3441 45" stroke="#431B1B" stroke-linecap="square"/>
<path d="M69.7113 29.4338C69.8568 29.4499 69.8433 29.5489 69.867 29.6673" stroke="#431B1B" stroke-linecap="square"/>
<path d="M73.4483 32.003C73.5999 32.251 73.8666 32.4212 74.0712 32.6258" stroke="#431B1B" stroke-linecap="square"/>
<path d="M69.9449 32.3922C69.9942 32.7372 70.1346 33.0798 70.2563 33.4043" stroke="#431B1B" stroke-linecap="square"/>
<path d="M76.8739 23.3611C77.2224 23.4109 77.3953 23.6568 77.6525 23.8282" stroke="#431B1B" stroke-linecap="square"/>
<path d="M74.5383 25.1517H76.4068" stroke="#431B1B" stroke-linecap="square"/>
<path d="M80.2995 29.0445V29.5895" stroke="#431B1B" stroke-linecap="square"/>
<path d="M78.5867 31.6916C78.3644 31.6785 78.2361 31.6133 78.1196 31.458" stroke="#431B1B" stroke-linecap="square"/>
<path d="M76.0954 28.0323H76.329" stroke="#431B1B" stroke-linecap="square"/>
<path d="M86.6058 24.2175C86.5946 24.1278 86.5027 24.1085 86.4457 24.0445C86.3023 23.8831 86.2661 23.7153 86.2165 23.5168" stroke="#431B1B" stroke-linecap="square"/>
<path d="M85.2822 23.6725C84.6426 23.6725 84.0876 23.7497 83.5694 23.3611" stroke="#431B1B" stroke-linecap="square"/>
<path d="M81.0781 24.3732V24.5289" stroke="#431B1B" stroke-linecap="square"/>
<path d="M81.2338 25.8524H81.3895" stroke="#431B1B" stroke-linecap="square"/>
<path d="M78.8203 19.4684C78.5921 19.2402 78.3557 19.1314 78.0417 19.0791" stroke="#431B1B" stroke-linecap="square"/>
<path d="M80.6888 15.9649C80.7102 16.1576 80.912 16.5047 81.0781 16.5877" stroke="#431B1B" stroke-linecap="square"/>
<path d="M59.5542 12.8715C59.0921 12.8715 59.044 12.6674 58.9128 12.23" stroke="#431B1B" stroke-linecap="square"/>
<path d="M60.5965 13.1922C60.784 13.2755 60.9552 13.2724 61.1578 13.2724" stroke="#431B1B" stroke-linecap="square"/>
<path d="M76.3096 64.9985C72.8563 65.3438 62.5417 66.7484 65.965 66.1778C69.648 65.564 73.0944 65.7224 76.7813 66.2789C77.9774 66.4595 79.1453 66.6159 80.3531 66.6159" stroke="#5D1718" stroke-width="3" stroke-linecap="round"/>
<path d="M80.3531 66.6158C76.3489 66.6158 72.4727 66.1367 68.6719 64.8861C65.9973 64.0061 63.4223 64.3585 60.7421 63.9426C58.7562 63.6345 56.9047 63.207 54.8791 63.1789C53.2026 63.1556 51.595 62.5723 49.9258 62.5723C47.3041 62.5723 44.6467 62.2871 42.0747 61.8086C41.2162 61.6489 40.3419 61.5615 39.4689 61.5615C38.1691 61.5615 37.1288 60.955 35.841 60.955C33.6186 60.955 31.3814 60.6836 29.2029 60.3484C27.2547 60.0487 25.2217 59.6493 23.25 59.5397C19.9817 59.3582 17.2974 57.0801 14.3768 55.9118C13.6347 55.615 13.2533 55.2941 12.4224 55.2941C11.7485 55.2941 11.0746 55.2941 10.4007 55.2941" stroke="#5D1718" stroke-width="3" stroke-linecap="round"/>
<path d="M7.3681 55.2941H10.4007" stroke="#5D1718" stroke-width="3" stroke-linecap="round"/>
<path d="M101.986 42.5571C101.688 43.0528 100.665 43.2435 100.177 43.4781C99.445 43.8302 98.7845 44.235 97.9872 44.4216C97.5622 44.521 97.1481 44.781 96.7292 44.781" stroke="#F9F8E2" stroke-width="3" stroke-linecap="round"/>
<path d="M96.7292 44.781C96.5293 45.3142 96.2358 45.6308 96.1227 46.1962" stroke="#F9F8E2" stroke-width="3" stroke-linecap="round"/>
<path d="M116.947 29.0114C116.863 28.3425 113.958 28.0282 113.701 28.6295C113.571 28.9316 113.16 29.1353 113.117 29.4382C113.067 29.788 113.194 30.2002 112.993 30.5165C112.742 30.9104 112.795 31.4375 112.297 31.4375" stroke="#F9F8E2" stroke-width="3" stroke-linecap="round"/>
<path d="M61.753 55.6984C63.9286 56.0657 66.4733 56.1506 68.582 56.8216C68.8765 56.9153 69.3229 57.4558 68.7617 57.5068C66.2612 57.7341 63.684 57.3444 61.2364 56.889C60.6866 56.7867 59.5122 56.8946 59.1248 56.5071" stroke="#F9F8E2" stroke-width="3" stroke-linecap="round"/>
<path d="M31.0225 52.4637C28.652 51.871 26.0409 51.8857 23.6095 51.8571C22.9823 51.8498 21.8633 52.0596 21.2732 51.6662C20.9991 51.4834 21.9322 51.6488 22.2616 51.655C23.6894 51.6816 25.103 51.7886 26.5185 51.9807C28.2185 52.2114 29.9056 52.6658 31.629 52.6658C32.0309 52.6658 30.9029 52.3202 30.5508 52.1267C28.7441 51.1338 26.5775 49.9557 24.508 49.6669C22.5932 49.3997 21.0689 48.4348 19.2739 47.7013C17.9089 47.1436 16.4588 46.1963 14.9496 46.1963C14.862 46.1963 13.6462 46.2088 13.6917 46.0952C13.8619 45.6695 16.5144 46.4112 16.8029 46.4883C18.7998 47.0218 20.7043 47.5699 22.7109 48.0158C23.4816 48.1871 24.1473 49.1611 24.9573 49.431" stroke="#F9F8E2" stroke-width="3" stroke-linecap="round"/>
<path d="M23.3399 52.6658C22.0489 52.6658 20.8579 52.5268 19.5884 52.2615C18.144 51.9597 16.331 52.1996 15.017 51.5426C13.051 50.5596 10.5236 50.6687 8.37897 50.2397" stroke="#F9F8E2" stroke-width="3" stroke-linecap="round"/>
<path d="M8.78335 48.0158C8.2223 48.5145 7.76893 48.523 7.16595 48.8245" stroke="#F9F8E2" stroke-width="3" stroke-linecap="round"/>
<path d="M12.0181 55.4963C10.7264 55.4963 6.85142 55.4963 8.14309 55.4963C9.1087 55.4963 10.0584 55.8414 11.0072 55.9905C12.5424 56.2317 14.1837 56.2783 15.6797 56.7093C16.277 56.8814 17.0701 56.8085 17.5667 57.2148C18.0552 57.6144 18.9102 58.1306 19.4986 58.3267" stroke="#5D1718" stroke-width="3" stroke-linecap="round"/>
<path d="M17.2747 53.4745C15.2355 52.6776 13.5723 52.3417 11.4228 52.2502C9.92927 52.1867 8.41213 52.1864 6.97499 51.7672C6.41055 51.6026 5.87055 51.6312 5.33513 51.4527C4.13264 51.0519 7.20724 51.0484 7.42427 51.0484C10.6902 51.0484 13.6602 52.1333 16.8254 52.7781C18.415 53.1019 20.0513 53.7154 21.5203 54.418C25.2798 56.216 29.6274 57.9223 33.853 57.9223" stroke="#5D1718" stroke-width="3" stroke-linecap="round"/>
<path d="M8.78333 42.1527C7.70884 42.1527 7.3681 41.8812 7.3681 40.8386C7.3681 40.6076 7.51008 39.6904 7.16593 39.7266C6.32882 39.8147 6.35723 40.7546 6.35723 41.344" stroke="#5D1718" stroke-width="3" stroke-linecap="round"/>
<path d="M4.758 30.6514C4.758 32.0254 4.758 33.3994 4.758 34.7734C4.758 36.0025 5.09897 36.4161 6.132 36.9326" stroke="#5D1718" stroke-width="3" stroke-linecap="round"/>
<path d="M5.15057 29.8663V39.0917" stroke="#5D1718" stroke-width="3" stroke-linecap="round"/>
<path d="M8.68368 30.4552C7.99581 30.4552 6.51058 30.1572 5.9793 30.4988C5.76908 30.6339 5.93568 32.0074 5.93568 32.2217C5.93568 32.7518 5.84865 33.3126 6.08835 33.792C6.45655 34.5284 6.72082 34.2488 6.72082 33.5957" stroke="#F9F8E2" stroke-width="3" stroke-linecap="round"/>
<path d="M3.77657 41.8397C3.57747 44.4281 3.20741 47.0759 4.26729 49.4076C4.44162 49.7911 4.28942 50.1833 4.37634 50.5744C4.47594 51.0227 4.758 51.2224 4.758 51.7522C4.758 52.351 4.95429 53.1144 4.95429 53.8132" stroke="#F9F8E2" stroke-width="3" stroke-linecap="round"/>
<path d="M5.34684 49.8875C5.34684 51.0357 4.96027 52.1428 4.65984 53.2243C4.58886 53.4798 4.35307 54.7708 4.75798 54.7946C5.21239 54.8213 5.67668 54.7946 6.13198 54.7946" stroke="#5D1718" stroke-width="3" stroke-linecap="round"/>
<path d="M4.9543 50.28C3.89414 50.3978 3.97287 51.2598 3.97287 52.1447C3.97287 53.0916 4.82231 53.2243 5.54316 53.2243" stroke="#5D1718" stroke-width="3" stroke-linecap="round"/>
<path d="M6.13199 47.7283C6.01531 46.3281 5.22232 45.2104 4.75799 43.9335C4.66301 43.6723 4.36542 45.2889 4.36542 45.6128C4.36542 46.6451 4.36542 47.6774 4.36542 48.7097" stroke="#F9F8E2" stroke-width="3" stroke-linecap="round"/>
<path d="M5.15055 39.0917C5.09489 39.5927 5.04518 41.2215 4.75798 41.4908C4.29827 41.9218 4.11045 41.7123 3.58026 41.4472" stroke="#5D1718" stroke-width="3" stroke-linecap="round"/>
<path d="M3.69263 37.6965V39.8513" stroke="#5D1718" stroke-width="3" stroke-linecap="round"/>
<path d="M3.49677 37.4026C3.52799 36.7468 3.64369 36.1005 3.64369 35.4436" stroke="#5D1718" stroke-width="3" stroke-linecap="round"/>
<path d="M11.3946 32.6165C9.74257 32.6165 6.77213 32.0339 5.54285 33.3998C4.38703 34.684 6.96964 33.9619 7.45503 34.6899" stroke="#F9F8E2" stroke-width="3" stroke-linecap="round"/>
<path d="M7.45505 34.69C6.75521 34.69 5.90873 34.7934 5.26642 34.4365C5.09654 34.3422 5.07 33.9292 4.86325 33.7684C4.69381 33.6366 4.21245 33.5526 4.14906 33.3307C3.98516 32.7571 4.63219 32.4922 4.74805 32.0866C4.88928 31.5924 4.95292 31.4004 5.17426 30.9578" stroke="#F9F8E2" stroke-width="3" stroke-linecap="round"/>
</svg>
